<svg width="2071" height="2323" viewBox="0 0 2071 2323" fill="none" xmlns="http://www.w3.org/2000/svg">
<path d="M262.259 31.7954L227.102 162.406H215.597L250.753 31.7954H262.259ZM355.995 147.491C348.964 147.491 342.696 146.284 337.192 143.869C331.723 141.455 327.373 138.099 324.142 133.802C320.945 129.469 319.205 124.445 318.921 118.727H332.345C332.629 122.243 333.836 125.279 335.967 127.836C338.097 130.357 340.885 132.31 344.33 133.695C347.774 135.08 351.592 135.773 355.782 135.773C360.47 135.773 364.624 134.956 368.247 133.322C371.869 131.689 374.71 129.416 376.769 126.504C378.829 123.592 379.859 120.219 379.859 116.384C379.859 112.371 378.865 108.837 376.876 105.783C374.887 102.694 371.975 100.279 368.14 98.5391C364.305 96.799 359.617 95.929 354.078 95.929H345.342V84.2102H354.078C358.41 84.2102 362.21 83.429 365.477 81.8665C368.779 80.304 371.354 78.1023 373.2 75.2614C375.083 72.4205 376.024 69.0824 376.024 65.2472C376.024 61.554 375.207 58.3402 373.573 55.6058C371.94 52.8714 369.632 50.7408 366.649 49.2138C363.701 47.6868 360.221 46.9233 356.208 46.9233C352.444 46.9233 348.893 47.6158 345.555 49.0007C342.252 50.3501 339.553 52.321 337.458 54.9134C335.363 57.4702 334.227 60.5597 334.049 64.1818H321.265C321.478 58.4645 323.2 53.4574 326.432 49.1605C329.664 44.8281 333.889 41.4545 339.11 39.0398C344.365 36.625 350.136 35.4176 356.421 35.4176C363.169 35.4176 368.957 36.7848 373.786 39.5192C378.616 42.218 382.327 45.7869 384.919 50.2259C387.512 54.6648 388.808 59.4588 388.808 64.608C388.808 70.7514 387.192 75.9893 383.96 80.3217C380.764 84.6541 376.414 87.6548 370.91 89.3239V90.1761C377.799 91.3125 383.179 94.2422 387.05 98.9652C390.921 103.653 392.856 109.459 392.856 116.384C392.856 122.314 391.24 127.641 388.009 132.364C384.813 137.051 380.445 140.744 374.905 143.443C369.365 146.142 363.062 147.491 355.995 147.491ZM462.156 81.4403V69.9347H527.781V81.4403H462.156ZM462.156 112.974V101.469H527.781V112.974H462.156ZM633.477 147.491C625.451 147.491 618.615 145.308 612.969 140.94C607.322 136.536 603.008 130.162 600.025 121.817C597.042 113.436 595.55 103.315 595.55 91.4545C595.55 79.6648 597.042 69.5973 600.025 61.2521C603.043 52.8714 607.376 46.4794 613.022 42.076C618.704 37.6371 625.522 35.4176 633.477 35.4176C641.431 35.4176 648.232 37.6371 653.878 42.076C659.56 46.4794 663.892 52.8714 666.875 61.2521C669.893 69.5973 671.403 79.6648 671.403 91.4545C671.403 103.315 669.911 113.436 666.928 121.817C663.945 130.162 659.631 136.536 653.984 140.94C648.338 145.308 641.502 147.491 633.477 147.491ZM633.477 135.773C641.431 135.773 647.61 131.937 652.013 124.267C656.417 116.597 658.619 105.659 658.619 91.4545C658.619 82.0085 657.607 73.9652 655.582 67.3246C653.594 60.6839 650.717 55.6236 646.953 52.1435C643.224 48.6634 638.732 46.9233 633.477 46.9233C625.593 46.9233 619.432 50.8118 614.993 58.5888C610.554 66.3303 608.335 77.2855 608.335 91.4545C608.335 100.901 609.329 108.926 611.317 115.531C613.306 122.136 616.165 127.161 619.893 130.606C623.658 134.05 628.185 135.773 633.477 135.773ZM706.799 131.085L705.946 136.838C705.343 140.886 704.419 145.219 703.176 149.835C701.969 154.452 700.708 158.802 699.395 162.886C698.081 166.969 696.998 170.219 696.145 172.634H686.557C687.019 170.361 687.623 167.36 688.368 163.631C689.114 159.903 689.86 155.73 690.605 151.114C691.387 146.533 692.026 141.845 692.523 137.051L693.162 131.085H706.799ZM762.636 147.491C755.605 147.491 749.337 146.284 743.833 143.869C738.364 141.455 734.014 138.099 730.782 133.802C727.586 129.469 725.846 124.445 725.562 118.727H738.985C739.269 122.243 740.477 125.279 742.607 127.836C744.738 130.357 747.526 132.31 750.97 133.695C754.415 135.08 758.232 135.773 762.423 135.773C767.11 135.773 771.265 134.956 774.887 133.322C778.509 131.689 781.35 129.416 783.41 126.504C785.47 123.592 786.499 120.219 786.499 116.384C786.499 112.371 785.505 108.837 783.517 105.783C781.528 102.694 778.616 100.279 774.781 98.5391C770.945 96.799 766.258 95.929 760.718 95.929H751.982V84.2102H760.718C765.051 84.2102 768.85 83.429 772.117 81.8665C775.42 80.304 777.994 78.1023 779.841 75.2614C781.723 72.4205 782.664 69.0824 782.664 65.2472C782.664 61.554 781.847 58.3402 780.214 55.6058C778.58 52.8714 776.272 50.7408 773.289 49.2138C770.342 47.6868 766.862 46.9233 762.849 46.9233C759.085 46.9233 755.534 47.6158 752.195 49.0007C748.893 50.3501 746.194 52.321 744.099 54.9134C742.004 57.4702 740.867 60.5597 740.69 64.1818H727.906C728.119 58.4645 729.841 53.4574 733.073 49.1605C736.304 44.8281 740.53 41.4545 745.75 39.0398C751.006 36.625 756.776 35.4176 763.062 35.4176C769.809 35.4176 775.597 36.7848 780.427 39.5192C785.257 42.218 788.968 45.7869 791.56 50.2259C794.152 54.6648 795.448 59.4588 795.448 64.608C795.448 70.7514 793.833 75.9893 790.601 80.3217C787.405 84.6541 783.055 87.6548 777.551 89.3239V90.1761C784.44 91.3125 789.82 94.2422 793.691 98.9652C797.561 103.653 799.497 109.459 799.497 116.384C799.497 122.314 797.881 127.641 794.649 132.364C791.453 137.051 787.085 140.744 781.546 143.443C776.006 146.142 769.703 147.491 762.636 147.491ZM858.144 147.491C851.112 147.491 844.845 146.284 839.34 143.869C833.872 141.455 829.521 138.099 826.29 133.802C823.094 129.469 821.354 124.445 821.07 118.727H834.493C834.777 122.243 835.985 125.279 838.115 127.836C840.246 130.357 843.034 132.31 846.478 133.695C849.923 135.08 853.74 135.773 857.931 135.773C862.618 135.773 866.773 134.956 870.395 133.322C874.017 131.689 876.858 129.416 878.918 126.504C880.977 123.592 882.007 120.219 882.007 116.384C882.007 112.371 881.013 108.837 879.024 105.783C877.036 102.694 874.124 100.279 870.289 98.5391C866.453 96.799 861.766 95.929 856.226 95.929H847.49V84.2102H856.226C860.558 84.2102 864.358 83.429 867.625 81.8665C870.928 80.304 873.502 78.1023 875.349 75.2614C877.231 72.4205 878.172 69.0824 878.172 65.2472C878.172 61.554 877.355 58.3402 875.722 55.6058C874.088 52.8714 871.78 50.7408 868.797 49.2138C865.85 47.6868 862.369 46.9233 858.357 46.9233C854.593 46.9233 851.041 47.6158 847.703 49.0007C844.401 50.3501 841.702 52.321 839.607 54.9134C837.512 57.4702 836.375 60.5597 836.198 64.1818H823.414C823.627 58.4645 825.349 53.4574 828.58 49.1605C831.812 44.8281 836.038 41.4545 841.258 39.0398C846.514 36.625 852.284 35.4176 858.57 35.4176C865.317 35.4176 871.105 36.7848 875.935 39.5192C880.764 42.218 884.475 45.7869 887.068 50.2259C889.66 54.6648 890.956 59.4588 890.956 64.608C890.956 70.7514 889.34 75.9893 886.109 80.3217C882.913 84.6541 878.563 87.6548 873.058 89.3239V90.1761C879.948 91.3125 885.328 94.2422 889.198 98.9652C893.069 103.653 895.004 109.459 895.004 116.384C895.004 122.314 893.389 127.641 890.157 132.364C886.961 137.051 882.593 140.744 877.053 143.443C871.514 146.142 865.21 147.491 858.144 147.491ZM922.797 146.852C920.169 146.852 917.914 145.911 916.032 144.029C914.15 142.147 913.208 139.892 913.208 137.264C913.208 134.636 914.15 132.381 916.032 130.499C917.914 128.617 920.169 127.676 922.797 127.676C925.424 127.676 927.679 128.617 929.561 130.499C931.444 132.381 932.385 134.636 932.385 137.264C932.385 139.004 931.941 140.602 931.053 142.058C930.201 143.514 929.047 144.686 927.591 145.574C926.17 146.426 924.572 146.852 922.797 146.852ZM964.105 146.852C961.477 146.852 959.222 145.911 957.34 144.029C955.458 142.147 954.517 139.892 954.517 137.264C954.517 134.636 955.458 132.381 957.34 130.499C959.222 128.617 961.477 127.676 964.105 127.676C966.733 127.676 968.988 128.617 970.87 130.499C972.752 132.381 973.693 134.636 973.693 137.264C973.693 139.004 973.249 140.602 972.362 142.058C971.509 143.514 970.355 144.686 968.899 145.574C967.479 146.426 965.881 146.852 964.105 146.852ZM1005.41 146.852C1002.79 146.852 1000.53 145.911 998.649 144.029C996.767 142.147 995.826 139.892 995.826 137.264C995.826 134.636 996.767 132.381 998.649 130.499C1000.53 128.617 1002.79 127.676 1005.41 127.676C1008.04 127.676 1010.3 128.617 1012.18 130.499C1014.06 132.381 1015 134.636 1015 137.264C1015 139.004 1014.56 140.602 1013.67 142.058C1012.82 143.514 1011.66 144.686 1010.21 145.574C1008.79 146.426 1007.19 146.852 1005.41 146.852Z" fill="#737370"/>
<path d="M127.303 127.909V237H104.239V149.802H103.599L78.6172 165.462V145.008L105.624 127.909H127.303Z" fill="#006CA9"/>
<path d="M1241.26 162V150.494C1241.26 147.227 1241.9 143.889 1243.17 140.48C1244.45 137.071 1246.14 133.857 1248.23 130.839C1250.33 127.82 1252.6 125.299 1255.05 123.275L1265.07 129.188C1263.08 132.312 1261.44 135.58 1260.17 138.989C1258.92 142.398 1258.3 146.197 1258.3 150.388V162H1241.26ZM1268.16 162V150.494C1268.16 147.227 1268.8 143.889 1270.07 140.48C1271.35 137.071 1273.04 133.857 1275.13 130.839C1277.23 127.82 1279.5 125.299 1281.95 123.275L1291.97 129.188C1289.98 132.312 1288.34 135.58 1287.07 138.989C1285.82 142.398 1285.2 146.197 1285.2 150.388V162H1268.16ZM1352.58 127.909V237H1329.52V149.802H1328.88L1303.9 165.462V145.008L1330.9 127.909H1352.58ZM1397.74 127.909V139.415C1397.74 142.682 1397.1 146.02 1395.82 149.429C1394.58 152.803 1392.91 155.999 1390.82 159.017C1388.72 162 1386.43 164.539 1383.95 166.634L1373.93 160.722C1375.71 157.916 1377.27 154.809 1378.62 151.4C1380 147.991 1380.7 144.031 1380.7 139.521V127.909H1397.74ZM1424.53 127.909V139.415C1424.53 142.682 1423.9 146.02 1422.62 149.429C1421.37 152.803 1419.71 155.999 1417.61 159.017C1415.52 162 1413.21 164.539 1410.69 166.634L1400.67 160.722C1402.48 157.916 1404.06 154.809 1405.41 151.4C1406.8 147.991 1407.49 144.031 1407.49 139.521V127.909H1424.53Z" fill="#FA8F00"/>
<path d="M1139.68 242.966L1127.32 230.714L1168.76 189.273L1127.32 147.884L1139.68 135.58L1193.37 189.273L1139.68 242.966ZM1083.75 212.284V194.919H1176.17L1158.7 212.284H1083.75ZM1083.75 183.626V166.261H1158.7L1176.17 183.626H1083.75Z" fill="#82D1F5"/>
<line x1="717" y1="178.5" x2="1034" y2="178.5" stroke="#737370" stroke-width="5"/>
<path d="M262.259 212.795L227.102 343.406H215.597L250.753 212.795H262.259ZM353.225 328.491C346.975 328.491 341.347 327.249 336.34 324.763C331.333 322.277 327.32 318.868 324.301 314.536C321.283 310.203 319.632 305.267 319.347 299.727H332.132C332.629 304.663 334.866 308.747 338.843 311.979C342.856 315.175 347.65 316.773 353.225 316.773C357.7 316.773 361.677 315.725 365.157 313.63C368.673 311.535 371.425 308.658 373.414 305.001C375.438 301.308 376.45 297.135 376.45 292.483C376.45 287.724 375.402 283.481 373.307 279.752C371.247 275.988 368.406 273.023 364.784 270.857C361.162 268.69 357.025 267.589 352.373 267.554C349.035 267.518 345.608 268.033 342.093 269.099C338.577 270.129 335.683 271.46 333.41 273.094L321.052 271.602L327.657 217.909H384.333V229.628H338.737L334.901 261.801H335.541C337.778 260.026 340.583 258.552 343.957 257.38C347.33 256.208 350.846 255.622 354.504 255.622C361.18 255.622 367.128 257.22 372.348 260.416C377.604 263.577 381.723 267.909 384.706 273.413C387.725 278.918 389.234 285.203 389.234 292.27C389.234 299.23 387.671 305.445 384.546 310.913C381.457 316.347 377.195 320.643 371.762 323.804C366.329 326.929 360.15 328.491 353.225 328.491ZM457.908 262.44V250.935H523.533V262.44H457.908ZM457.908 293.974V282.469H523.533V293.974H457.908ZM629.229 328.491C621.203 328.491 614.367 326.308 608.721 321.94C603.074 317.536 598.76 311.162 595.777 302.817C592.794 294.436 591.302 284.315 591.302 272.455C591.302 260.665 592.794 250.597 595.777 242.252C598.795 233.871 603.128 227.479 608.774 223.076C614.456 218.637 621.274 216.418 629.229 216.418C637.183 216.418 643.983 218.637 649.63 223.076C655.312 227.479 659.644 233.871 662.627 242.252C665.645 250.597 667.155 260.665 667.155 272.455C667.155 284.315 665.663 294.436 662.68 302.817C659.697 311.162 655.383 317.536 649.736 321.94C644.09 326.308 637.254 328.491 629.229 328.491ZM629.229 316.773C637.183 316.773 643.362 312.937 647.765 305.267C652.169 297.597 654.371 286.659 654.371 272.455C654.371 263.009 653.358 254.965 651.334 248.325C649.346 241.684 646.469 236.624 642.705 233.143C638.976 229.663 634.484 227.923 629.229 227.923C621.345 227.923 615.184 231.812 610.745 239.589C606.306 247.33 604.086 258.286 604.086 272.455C604.086 281.901 605.081 289.926 607.069 296.531C609.058 303.136 611.917 308.161 615.645 311.606C619.41 315.05 623.937 316.773 629.229 316.773ZM702.551 312.085L701.698 317.838C701.095 321.886 700.171 326.219 698.928 330.835C697.721 335.452 696.46 339.802 695.146 343.886C693.833 347.969 692.749 351.219 691.897 353.634H682.309C682.771 351.361 683.374 348.36 684.12 344.631C684.866 340.903 685.612 336.73 686.357 332.114C687.139 327.533 687.778 322.845 688.275 318.051L688.914 312.085H702.551ZM725.629 327V317.412L761.637 277.994C765.863 273.378 769.343 269.365 772.077 265.956C774.812 262.511 776.836 259.28 778.15 256.261C779.499 253.207 780.174 250.011 780.174 246.673C780.174 242.838 779.251 239.518 777.404 236.712C775.593 233.907 773.107 231.741 769.947 230.214C766.786 228.687 763.235 227.923 759.293 227.923C755.103 227.923 751.445 228.793 748.32 230.533C745.231 232.238 742.834 234.635 741.129 237.724C739.46 240.814 738.626 244.436 738.626 248.591H726.055C726.055 242.199 727.528 236.588 730.476 231.759C733.423 226.929 737.436 223.165 742.514 220.466C747.628 217.767 753.363 216.418 759.719 216.418C766.112 216.418 771.776 217.767 776.712 220.466C781.648 223.165 785.518 226.805 788.324 231.386C791.129 235.967 792.532 241.062 792.532 246.673C792.532 250.686 791.804 254.61 790.348 258.445C788.928 262.245 786.442 266.489 782.891 271.176C779.375 275.828 774.492 281.51 768.242 288.222L743.739 314.429V315.281H794.45V327H725.629ZM852.031 328.491C844.006 328.491 837.17 326.308 831.523 321.94C825.877 317.536 821.563 311.162 818.58 302.817C815.597 294.436 814.105 284.315 814.105 272.455C814.105 260.665 815.597 250.597 818.58 242.252C821.598 233.871 825.93 227.479 831.577 223.076C837.259 218.637 844.077 216.418 852.031 216.418C859.986 216.418 866.786 218.637 872.433 223.076C878.114 227.479 882.447 233.871 885.43 242.252C888.448 250.597 889.957 260.665 889.957 272.455C889.957 284.315 888.466 294.436 885.483 302.817C882.5 311.162 878.185 317.536 872.539 321.94C866.893 326.308 860.057 328.491 852.031 328.491ZM852.031 316.773C859.986 316.773 866.165 312.937 870.568 305.267C874.972 297.597 877.173 286.659 877.173 272.455C877.173 263.009 876.161 254.965 874.137 248.325C872.148 241.684 869.272 236.624 865.508 233.143C861.779 229.663 857.287 227.923 852.031 227.923C844.148 227.923 837.987 231.812 833.548 239.589C829.109 247.33 826.889 258.286 826.889 272.455C826.889 281.901 827.884 289.926 829.872 296.531C831.861 303.136 834.719 308.161 838.448 311.606C842.212 315.05 846.74 316.773 852.031 316.773ZM915.765 327.852C913.137 327.852 910.882 326.911 909 325.029C907.118 323.147 906.177 320.892 906.177 318.264C906.177 315.636 907.118 313.381 909 311.499C910.882 309.617 913.137 308.676 915.765 308.676C918.393 308.676 920.648 309.617 922.53 311.499C924.412 313.381 925.353 315.636 925.353 318.264C925.353 320.004 924.909 321.602 924.022 323.058C923.169 324.514 922.015 325.686 920.559 326.574C919.139 327.426 917.541 327.852 915.765 327.852ZM957.074 327.852C954.446 327.852 952.191 326.911 950.309 325.029C948.427 323.147 947.486 320.892 947.486 318.264C947.486 315.636 948.427 313.381 950.309 311.499C952.191 309.617 954.446 308.676 957.074 308.676C959.702 308.676 961.957 309.617 963.839 311.499C965.721 313.381 966.662 315.636 966.662 318.264C966.662 320.004 966.218 321.602 965.33 323.058C964.478 324.514 963.324 325.686 961.868 326.574C960.447 327.426 958.849 327.852 957.074 327.852ZM998.382 327.852C995.755 327.852 993.5 326.911 991.618 325.029C989.735 323.147 988.794 320.892 988.794 318.264C988.794 315.636 989.735 313.381 991.618 311.499C993.5 309.617 995.755 308.676 998.382 308.676C1001.01 308.676 1003.27 309.617 1005.15 311.499C1007.03 313.381 1007.97 315.636 1007.97 318.264C1007.97 320.004 1007.53 321.602 1006.64 323.058C1005.79 324.514 1004.63 325.686 1003.18 326.574C1001.76 327.426 1000.16 327.852 998.382 327.852Z" fill="#737370"/>
<line x1="717" y1="359.5" x2="1034" y2="359.5" stroke="#737370" stroke-width="5"/>
<path d="M283.259 992.795L248.102 1123.41H236.597L271.753 992.795H283.259ZM376.995 1108.49C369.964 1108.49 363.696 1107.28 358.192 1104.87C352.723 1102.45 348.373 1099.1 345.142 1094.8C341.945 1090.47 340.205 1085.44 339.921 1079.73H353.345C353.629 1083.24 354.836 1086.28 356.967 1088.84C359.097 1091.36 361.885 1093.31 365.33 1094.7C368.774 1096.08 372.592 1096.77 376.782 1096.77C381.47 1096.77 385.624 1095.96 389.247 1094.32C392.869 1092.69 395.71 1090.42 397.769 1087.5C399.829 1084.59 400.859 1081.22 400.859 1077.38C400.859 1073.37 399.865 1069.84 397.876 1066.78C395.887 1063.69 392.975 1061.28 389.14 1059.54C385.305 1057.8 380.617 1056.93 375.078 1056.93H366.342V1045.21H375.078C379.41 1045.21 383.21 1044.43 386.477 1042.87C389.779 1041.3 392.354 1039.1 394.2 1036.26C396.083 1033.42 397.024 1030.08 397.024 1026.25C397.024 1022.55 396.207 1019.34 394.573 1016.61C392.94 1013.87 390.632 1011.74 387.649 1010.21C384.701 1008.69 381.221 1007.92 377.208 1007.92C373.444 1007.92 369.893 1008.62 366.555 1010C363.252 1011.35 360.553 1013.32 358.458 1015.91C356.363 1018.47 355.227 1021.56 355.049 1025.18H342.265C342.478 1019.46 344.2 1014.46 347.432 1010.16C350.664 1005.83 354.889 1002.45 360.11 1000.04C365.365 997.625 371.136 996.418 377.421 996.418C384.169 996.418 389.957 997.785 394.786 1000.52C399.616 1003.22 403.327 1006.79 405.919 1011.23C408.512 1015.66 409.808 1020.46 409.808 1025.61C409.808 1031.75 408.192 1036.99 404.96 1041.32C401.764 1045.65 397.414 1048.65 391.91 1050.32V1051.18C398.799 1052.31 404.179 1055.24 408.05 1059.97C411.921 1064.65 413.856 1070.46 413.856 1077.38C413.856 1083.31 412.24 1088.64 409.009 1093.36C405.813 1098.05 401.445 1101.74 395.905 1104.44C390.365 1107.14 384.062 1108.49 376.995 1108.49ZM483.156 1042.44V1030.93H548.781V1042.44H483.156ZM483.156 1073.97V1062.47H548.781V1073.97H483.156ZM657.246 997.909V1107H644.036V1011.76H643.397L616.763 1029.44V1016.02L644.036 997.909H657.246ZM701.138 1092.09L700.286 1097.84C699.683 1101.89 698.759 1106.22 697.516 1110.84C696.309 1115.45 695.048 1119.8 693.734 1123.89C692.42 1127.97 691.337 1131.22 690.485 1133.63H680.897C681.359 1131.36 681.962 1128.36 682.708 1124.63C683.454 1120.9 684.2 1116.73 684.945 1112.11C685.727 1107.53 686.366 1102.85 686.863 1098.05L687.502 1092.09H701.138ZM755.99 1108.49C747.965 1108.49 741.129 1106.31 735.482 1101.94C729.836 1097.54 725.521 1091.16 722.539 1082.82C719.556 1074.44 718.064 1064.32 718.064 1052.45C718.064 1040.66 719.556 1030.6 722.539 1022.25C725.557 1013.87 729.889 1007.48 735.536 1003.08C741.218 998.637 748.036 996.418 755.99 996.418C763.945 996.418 770.745 998.637 776.392 1003.08C782.073 1007.48 786.406 1013.87 789.389 1022.25C792.407 1030.6 793.916 1040.66 793.916 1052.45C793.916 1064.32 792.425 1074.44 789.442 1082.82C786.459 1091.16 782.144 1097.54 776.498 1101.94C770.852 1106.31 764.016 1108.49 755.99 1108.49ZM755.99 1096.77C763.945 1096.77 770.124 1092.94 774.527 1085.27C778.931 1077.6 781.132 1066.66 781.132 1052.45C781.132 1043.01 780.12 1034.97 778.096 1028.32C776.107 1021.68 773.231 1016.62 769.467 1013.14C765.738 1009.66 761.246 1007.92 755.99 1007.92C748.107 1007.92 741.945 1011.81 737.507 1019.59C733.068 1027.33 730.848 1038.29 730.848 1052.45C730.848 1061.9 731.843 1069.93 733.831 1076.53C735.82 1083.14 738.678 1088.16 742.407 1091.61C746.171 1095.05 750.699 1096.77 755.99 1096.77ZM849.74 1108.49C841.715 1108.49 834.879 1106.31 829.232 1101.94C823.586 1097.54 819.271 1091.16 816.289 1082.82C813.306 1074.44 811.814 1064.32 811.814 1052.45C811.814 1040.66 813.306 1030.6 816.289 1022.25C819.307 1013.87 823.639 1007.48 829.286 1003.08C834.968 998.637 841.786 996.418 849.74 996.418C857.695 996.418 864.495 998.637 870.142 1003.08C875.823 1007.48 880.156 1013.87 883.139 1022.25C886.157 1030.6 887.666 1040.66 887.666 1052.45C887.666 1064.32 886.175 1074.44 883.192 1082.82C880.209 1091.16 875.894 1097.54 870.248 1101.94C864.602 1106.31 857.766 1108.49 849.74 1108.49ZM849.74 1096.77C857.695 1096.77 863.874 1092.94 868.277 1085.27C872.681 1077.6 874.882 1066.66 874.882 1052.45C874.882 1043.01 873.87 1034.97 871.846 1028.32C869.857 1021.68 866.981 1016.62 863.217 1013.14C859.488 1009.66 854.996 1007.92 849.74 1007.92C841.857 1007.92 835.695 1011.81 831.257 1019.59C826.818 1027.33 824.598 1038.29 824.598 1052.45C824.598 1061.9 825.593 1069.93 827.581 1076.53C829.57 1083.14 832.428 1088.16 836.157 1091.61C839.921 1095.05 844.449 1096.77 849.74 1096.77ZM913.474 1107.85C910.846 1107.85 908.591 1106.91 906.709 1105.03C904.827 1103.15 903.886 1100.89 903.886 1098.26C903.886 1095.64 904.827 1093.38 906.709 1091.5C908.591 1089.62 910.846 1088.68 913.474 1088.68C916.102 1088.68 918.357 1089.62 920.239 1091.5C922.121 1093.38 923.062 1095.64 923.062 1098.26C923.062 1100 922.618 1101.6 921.731 1103.06C920.878 1104.51 919.724 1105.69 918.268 1106.57C916.848 1107.43 915.25 1107.85 913.474 1107.85ZM954.783 1107.85C952.155 1107.85 949.9 1106.91 948.018 1105.03C946.136 1103.15 945.195 1100.89 945.195 1098.26C945.195 1095.64 946.136 1093.38 948.018 1091.5C949.9 1089.62 952.155 1088.68 954.783 1088.68C957.411 1088.68 959.666 1089.62 961.548 1091.5C963.43 1093.38 964.371 1095.64 964.371 1098.26C964.371 1100 963.927 1101.6 963.039 1103.06C962.187 1104.51 961.033 1105.69 959.577 1106.57C958.156 1107.43 956.558 1107.85 954.783 1107.85ZM996.091 1107.85C993.464 1107.85 991.209 1106.91 989.327 1105.03C987.444 1103.15 986.503 1100.89 986.503 1098.26C986.503 1095.64 987.444 1093.38 989.327 1091.5C991.209 1089.62 993.464 1088.68 996.091 1088.68C998.719 1088.68 1000.97 1089.62 1002.86 1091.5C1004.74 1093.38 1005.68 1095.64 1005.68 1098.26C1005.68 1100 1005.24 1101.6 1004.35 1103.06C1003.5 1104.51 1002.34 1105.69 1000.89 1106.57C999.465 1107.43 997.867 1107.85 996.091 1107.85Z" fill="#737370"/>
<path d="M120.165 1198.49C112.211 1198.49 105.126 1197.12 98.9119 1194.39C92.733 1191.62 87.8501 1187.82 84.2635 1182.99C80.7124 1178.13 78.8835 1172.51 78.777 1166.16H102.001C102.143 1168.82 103.013 1171.17 104.612 1173.19C106.245 1175.18 108.411 1176.72 111.11 1177.82C113.809 1178.92 116.845 1179.48 120.219 1179.48C123.734 1179.48 126.842 1178.85 129.54 1177.61C132.239 1176.37 134.352 1174.65 135.879 1172.44C137.406 1170.24 138.17 1167.7 138.17 1164.83C138.17 1161.91 137.353 1159.34 135.719 1157.1C134.121 1154.83 131.813 1153.05 128.795 1151.78C125.812 1150.5 122.261 1149.86 118.141 1149.86H107.967V1132.92H118.141C121.621 1132.92 124.693 1132.32 127.357 1131.11C130.055 1129.9 132.151 1128.23 133.642 1126.1C135.134 1123.94 135.879 1121.41 135.879 1118.54C135.879 1115.8 135.222 1113.41 133.908 1111.35C132.63 1109.25 130.819 1107.62 128.475 1106.45C126.167 1105.27 123.468 1104.69 120.379 1104.69C117.254 1104.69 114.395 1105.26 111.803 1106.39C109.21 1107.49 107.133 1109.07 105.57 1111.13C104.008 1113.19 103.173 1115.61 103.067 1118.38H80.9609C81.0675 1112.09 82.8608 1106.55 86.3409 1101.76C89.821 1096.96 94.5085 1093.22 100.403 1090.52C106.334 1087.78 113.028 1086.42 120.485 1086.42C128.013 1086.42 134.601 1087.78 140.247 1090.52C145.893 1093.25 150.279 1096.95 153.404 1101.6C156.565 1106.22 158.127 1111.4 158.092 1117.15C158.127 1123.26 156.227 1128.36 152.392 1132.44C148.592 1136.52 143.638 1139.12 137.531 1140.22V1141.07C145.556 1142.1 151.664 1144.89 155.854 1149.43C160.08 1153.94 162.175 1159.59 162.14 1166.37C162.175 1172.59 160.382 1178.11 156.76 1182.94C153.173 1187.77 148.219 1191.57 141.898 1194.34C135.577 1197.11 128.333 1198.49 120.165 1198.49Z" fill="#006CA9"/>
<path d="M64.3189 1413.38C60.8033 1413.38 57.7848 1412.14 55.2635 1409.66C52.7777 1407.13 51.5348 1404.12 51.5348 1400.6C51.5348 1397.12 52.7777 1394.14 55.2635 1391.65C57.7848 1389.17 60.8033 1387.92 64.3189 1387.92C67.728 1387.92 70.7109 1389.17 73.2678 1391.65C75.8246 1394.14 77.103 1397.12 77.103 1400.6C77.103 1402.94 76.4993 1405.09 75.2919 1407.05C74.12 1408.96 72.5753 1410.51 70.6577 1411.68C68.7401 1412.82 66.6271 1413.38 64.3189 1413.38ZM108.997 1413.38C105.481 1413.38 102.463 1412.14 99.9412 1409.66C97.4554 1407.13 96.2125 1404.12 96.2125 1400.6C96.2125 1397.12 97.4554 1394.14 99.9412 1391.65C102.463 1389.17 105.481 1387.92 108.997 1387.92C112.406 1387.92 115.389 1389.17 117.945 1391.65C120.502 1394.14 121.781 1397.12 121.781 1400.6C121.781 1402.94 121.177 1405.09 119.97 1407.05C118.798 1408.96 117.253 1410.51 115.335 1411.68C113.418 1412.82 111.305 1413.38 108.997 1413.38ZM153.674 1413.38C150.159 1413.38 147.14 1412.14 144.619 1409.66C142.133 1407.13 140.89 1404.12 140.89 1400.6C140.89 1397.12 142.133 1394.14 144.619 1391.65C147.14 1389.17 150.159 1387.92 153.674 1387.92C157.083 1387.92 160.066 1389.17 162.623 1391.65C165.18 1394.14 166.458 1397.12 166.458 1400.6C166.458 1402.94 165.855 1405.09 164.647 1407.05C163.475 1408.96 161.931 1410.51 160.013 1411.68C158.096 1412.82 155.983 1413.38 153.674 1413.38Z" fill="#737370"/>
<path d="M59.3189 1899.38C55.8033 1899.38 52.7848 1898.14 50.2635 1895.66C47.7777 1893.13 46.5348 1890.12 46.5348 1886.6C46.5348 1883.12 47.7777 1880.14 50.2635 1877.65C52.7848 1875.17 55.8033 1873.92 59.3189 1873.92C62.728 1873.92 65.7109 1875.17 68.2678 1877.65C70.8246 1880.14 72.103 1883.12 72.103 1886.6C72.103 1888.94 71.4993 1891.09 70.2919 1893.05C69.12 1894.96 67.5753 1896.51 65.6577 1897.68C63.7401 1898.82 61.6271 1899.38 59.3189 1899.38ZM103.997 1899.38C100.481 1899.38 97.4625 1898.14 94.9412 1895.66C92.4554 1893.13 91.2125 1890.12 91.2125 1886.6C91.2125 1883.12 92.4554 1880.14 94.9412 1877.65C97.4625 1875.17 100.481 1873.92 103.997 1873.92C107.406 1873.92 110.389 1875.17 112.945 1877.65C115.502 1880.14 116.781 1883.12 116.781 1886.6C116.781 1888.94 116.177 1891.09 114.97 1893.05C113.798 1894.96 112.253 1896.51 110.335 1897.68C108.418 1898.82 106.305 1899.38 103.997 1899.38ZM148.674 1899.38C145.159 1899.38 142.14 1898.14 139.619 1895.66C137.133 1893.13 135.89 1890.12 135.89 1886.6C135.89 1883.12 137.133 1880.14 139.619 1877.65C142.14 1875.17 145.159 1873.92 148.674 1873.92C152.083 1873.92 155.066 1875.17 157.623 1877.65C160.18 1880.14 161.458 1883.12 161.458 1886.6C161.458 1888.94 160.855 1891.09 159.647 1893.05C158.475 1894.96 156.931 1896.51 155.013 1897.68C153.096 1898.82 150.983 1899.38 148.674 1899.38Z" fill="#737370"/>
<path d="M1242.26 1123V1111.49C1242.26 1108.23 1242.9 1104.89 1244.17 1101.48C1245.45 1098.07 1247.14 1094.86 1249.23 1091.84C1251.33 1088.82 1253.6 1086.3 1256.05 1084.27L1266.07 1090.19C1264.08 1093.31 1262.44 1096.58 1261.17 1099.99C1259.92 1103.4 1259.3 1107.2 1259.3 1111.39V1123H1242.26ZM1269.16 1123V1111.49C1269.16 1108.23 1269.8 1104.89 1271.07 1101.48C1272.35 1098.07 1274.04 1094.86 1276.13 1091.84C1278.23 1088.82 1280.5 1086.3 1282.95 1084.27L1292.97 1090.19C1290.98 1093.31 1289.34 1096.58 1288.07 1099.99C1286.82 1103.4 1286.2 1107.2 1286.2 1111.39V1123H1269.16ZM1306.76 1198V1088.91H1378.99V1107.93H1329.83V1133.92H1374.2V1152.94H1329.83V1198H1306.76ZM1394.08 1198V1116.18H1416.77V1198H1394.08ZM1405.48 1105.63C1402.11 1105.63 1399.21 1104.52 1396.8 1102.28C1394.42 1100.01 1393.23 1097.29 1393.23 1094.13C1393.23 1091 1394.42 1088.32 1396.8 1086.09C1399.21 1083.81 1402.11 1082.68 1405.48 1082.68C1408.85 1082.68 1411.73 1083.81 1414.11 1086.09C1416.52 1088.32 1417.73 1091 1417.73 1094.13C1417.73 1097.29 1416.52 1100.01 1414.11 1102.28C1411.73 1104.52 1408.85 1105.63 1405.48 1105.63ZM1434.52 1198V1184.47L1474.58 1134.88V1134.29H1435.91V1116.18H1501.91V1130.94L1464.3 1179.3V1179.89H1503.29V1198H1434.52ZM1520.22 1198V1184.47L1560.27 1134.88V1134.29H1521.6V1116.18H1587.6V1130.94L1549.99 1179.3V1179.89H1588.98V1198H1520.22ZM1625.35 1088.91V1100.41C1625.35 1103.68 1624.71 1107.02 1623.44 1110.43C1622.19 1113.8 1620.52 1117 1618.43 1120.02C1616.33 1123 1614.04 1125.54 1611.56 1127.63L1601.54 1121.72C1603.32 1118.92 1604.88 1115.81 1606.23 1112.4C1607.62 1108.99 1608.31 1105.03 1608.31 1100.52V1088.91H1625.35ZM1652.15 1088.91V1100.41C1652.15 1103.68 1651.51 1107.02 1650.23 1110.43C1648.99 1113.8 1647.32 1117 1645.22 1120.02C1643.13 1123 1640.82 1125.54 1638.3 1127.63L1628.28 1121.72C1630.09 1118.92 1631.67 1115.81 1633.02 1112.4C1634.41 1108.99 1635.1 1105.03 1635.1 1100.52V1088.91H1652.15Z" fill="#FA8F00"/>
<path d="M1140.68 1203.97L1128.32 1191.71L1169.76 1150.27L1128.32 1108.88L1140.68 1096.58L1194.37 1150.27L1140.68 1203.97ZM1084.75 1173.28V1155.92H1177.17L1159.7 1173.28H1084.75ZM1084.75 1144.63V1127.26H1159.7L1177.17 1144.63H1084.75Z" fill="#82D1F5"/>
<path d="M283.259 1173.8L248.102 1304.41H236.597L271.753 1173.8H283.259ZM374.225 1289.49C367.975 1289.49 362.347 1288.25 357.34 1285.76C352.333 1283.28 348.32 1279.87 345.301 1275.54C342.283 1271.2 340.632 1266.27 340.347 1260.73H353.132C353.629 1265.66 355.866 1269.75 359.843 1272.98C363.856 1276.17 368.65 1277.77 374.225 1277.77C378.7 1277.77 382.677 1276.73 386.157 1274.63C389.673 1272.53 392.425 1269.66 394.414 1266C396.438 1262.31 397.45 1258.13 397.45 1253.48C397.45 1248.72 396.402 1244.48 394.307 1240.75C392.247 1236.99 389.406 1234.02 385.784 1231.86C382.162 1229.69 378.025 1228.59 373.373 1228.55C370.035 1228.52 366.608 1229.03 363.093 1230.1C359.577 1231.13 356.683 1232.46 354.41 1234.09L342.052 1232.6L348.657 1178.91H405.333V1190.63H359.737L355.901 1222.8H356.541C358.778 1221.03 361.583 1219.55 364.957 1218.38C368.33 1217.21 371.846 1216.62 375.504 1216.62C382.18 1216.62 388.128 1218.22 393.348 1221.42C398.604 1224.58 402.723 1228.91 405.706 1234.41C408.725 1239.92 410.234 1246.2 410.234 1253.27C410.234 1260.23 408.671 1266.44 405.546 1271.91C402.457 1277.35 398.195 1281.64 392.762 1284.8C387.329 1287.93 381.15 1289.49 374.225 1289.49ZM478.908 1223.44V1211.93H544.533V1223.44H478.908ZM478.908 1254.97V1243.47H544.533V1254.97H478.908ZM650.229 1289.49C642.203 1289.49 635.367 1287.31 629.721 1282.94C624.074 1278.54 619.76 1272.16 616.777 1263.82C613.794 1255.44 612.302 1245.32 612.302 1233.45C612.302 1221.66 613.794 1211.6 616.777 1203.25C619.795 1194.87 624.128 1188.48 629.774 1184.08C635.456 1179.64 642.274 1177.42 650.229 1177.42C658.183 1177.42 664.983 1179.64 670.63 1184.08C676.312 1188.48 680.644 1194.87 683.627 1203.25C686.645 1211.6 688.155 1221.66 688.155 1233.45C688.155 1245.32 686.663 1255.44 683.68 1263.82C680.697 1272.16 676.383 1278.54 670.736 1282.94C665.09 1287.31 658.254 1289.49 650.229 1289.49ZM650.229 1277.77C658.183 1277.77 664.362 1273.94 668.765 1266.27C673.169 1258.6 675.371 1247.66 675.371 1233.45C675.371 1224.01 674.358 1215.97 672.334 1209.32C670.346 1202.68 667.469 1197.62 663.705 1194.14C659.976 1190.66 655.484 1188.92 650.229 1188.92C642.345 1188.92 636.184 1192.81 631.745 1200.59C627.306 1208.33 625.086 1219.29 625.086 1233.45C625.086 1242.9 626.081 1250.93 628.069 1257.53C630.058 1264.14 632.917 1269.16 636.645 1272.61C640.41 1276.05 644.937 1277.77 650.229 1277.77ZM723.551 1273.09L722.698 1278.84C722.095 1282.89 721.171 1287.22 719.928 1291.84C718.721 1296.45 717.46 1300.8 716.146 1304.89C714.833 1308.97 713.749 1312.22 712.897 1314.63H703.309C703.771 1312.36 704.374 1309.36 705.12 1305.63C705.866 1301.9 706.612 1297.73 707.357 1293.11C708.139 1288.53 708.778 1283.85 709.275 1279.05L709.914 1273.09H723.551ZM779.042 1289.49C774.567 1289.42 770.093 1288.57 765.618 1286.93C761.144 1285.3 757.06 1282.55 753.367 1278.68C749.674 1274.77 746.708 1269.5 744.471 1262.86C742.234 1256.18 741.115 1247.8 741.115 1237.72C741.115 1228.06 742.021 1219.5 743.832 1212.04C745.643 1204.55 748.271 1198.25 751.716 1193.13C755.16 1187.98 759.315 1184.08 764.18 1181.41C769.081 1178.75 774.603 1177.42 780.746 1177.42C786.854 1177.42 792.287 1178.64 797.046 1181.09C801.84 1183.51 805.746 1186.88 808.765 1191.21C811.783 1195.55 813.736 1200.54 814.624 1206.18H801.627C800.419 1201.28 798.076 1197.22 794.596 1193.98C791.115 1190.75 786.499 1189.14 780.746 1189.14C772.294 1189.14 765.636 1192.81 760.771 1200.16C755.941 1207.51 753.509 1217.83 753.473 1231.11H754.326C756.314 1228.09 758.676 1225.52 761.41 1223.39C764.18 1221.22 767.234 1219.55 770.572 1218.38C773.91 1217.21 777.444 1216.62 781.172 1216.62C787.422 1216.62 793.14 1218.18 798.324 1221.31C803.509 1224.4 807.664 1228.68 810.789 1234.15C813.914 1239.58 815.476 1245.81 815.476 1252.84C815.476 1259.59 813.967 1265.77 810.949 1271.38C807.93 1276.96 803.686 1281.39 798.218 1284.7C792.784 1287.96 786.392 1289.56 779.042 1289.49ZM779.042 1277.77C783.516 1277.77 787.529 1276.65 791.08 1274.42C794.667 1272.18 797.49 1269.18 799.549 1265.41C801.645 1261.65 802.692 1257.46 802.692 1252.84C802.692 1248.33 801.68 1244.23 799.656 1240.54C797.667 1236.81 794.915 1233.85 791.4 1231.64C787.919 1229.44 783.942 1228.34 779.468 1228.34C776.094 1228.34 772.951 1229.02 770.039 1230.37C767.127 1231.68 764.571 1233.49 762.369 1235.8C760.203 1238.11 758.498 1240.75 757.255 1243.74C756.012 1246.68 755.391 1249.79 755.391 1253.06C755.391 1257.39 756.403 1261.44 758.427 1265.2C760.487 1268.97 763.292 1272 766.843 1274.31C770.43 1276.62 774.496 1277.77 779.042 1277.77ZM872.006 1289.49C863.98 1289.49 857.144 1287.31 851.498 1282.94C845.852 1278.54 841.537 1272.16 838.554 1263.82C835.571 1255.44 834.08 1245.32 834.08 1233.45C834.08 1221.66 835.571 1211.6 838.554 1203.25C841.573 1194.87 845.905 1188.48 851.551 1184.08C857.233 1179.64 864.051 1177.42 872.006 1177.42C879.96 1177.42 886.761 1179.64 892.407 1184.08C898.089 1188.48 902.421 1194.87 905.404 1203.25C908.423 1211.6 909.932 1221.66 909.932 1233.45C909.932 1245.32 908.441 1255.44 905.458 1263.82C902.475 1272.16 898.16 1278.54 892.514 1282.94C886.867 1287.31 880.031 1289.49 872.006 1289.49ZM872.006 1277.77C879.96 1277.77 886.139 1273.94 890.543 1266.27C894.946 1258.6 897.148 1247.66 897.148 1233.45C897.148 1224.01 896.136 1215.97 894.112 1209.32C892.123 1202.68 889.247 1197.62 885.482 1194.14C881.754 1190.66 877.262 1188.92 872.006 1188.92C864.122 1188.92 857.961 1192.81 853.522 1200.59C849.083 1208.33 846.864 1219.29 846.864 1233.45C846.864 1242.9 847.858 1250.93 849.847 1257.53C851.835 1264.14 854.694 1269.16 858.423 1272.61C862.187 1276.05 866.715 1277.77 872.006 1277.77ZM935.74 1288.85C933.112 1288.85 930.857 1287.91 928.975 1286.03C927.093 1284.15 926.152 1281.89 926.152 1279.26C926.152 1276.64 927.093 1274.38 928.975 1272.5C930.857 1270.62 933.112 1269.68 935.74 1269.68C938.368 1269.68 940.623 1270.62 942.505 1272.5C944.387 1274.38 945.328 1276.64 945.328 1279.26C945.328 1281 944.884 1282.6 943.996 1284.06C943.144 1285.51 941.99 1286.69 940.534 1287.57C939.113 1288.43 937.515 1288.85 935.74 1288.85ZM977.048 1288.85C974.421 1288.85 972.166 1287.91 970.284 1286.03C968.401 1284.15 967.46 1281.89 967.46 1279.26C967.46 1276.64 968.401 1274.38 970.284 1272.5C972.166 1270.62 974.421 1269.68 977.048 1269.68C979.676 1269.68 981.931 1270.62 983.813 1272.5C985.695 1274.38 986.637 1276.64 986.637 1279.26C986.637 1281 986.193 1282.6 985.305 1284.06C984.453 1285.51 983.298 1286.69 981.843 1287.57C980.422 1288.43 978.824 1288.85 977.048 1288.85ZM1018.36 1288.85C1015.73 1288.85 1013.47 1287.91 1011.59 1286.03C1009.71 1284.15 1008.77 1281.89 1008.77 1279.26C1008.77 1276.64 1009.71 1274.38 1011.59 1272.5C1013.47 1270.62 1015.73 1269.68 1018.36 1269.68C1020.98 1269.68 1023.24 1270.62 1025.12 1272.5C1027 1274.38 1027.95 1276.64 1027.95 1279.26C1027.95 1281 1027.5 1282.6 1026.61 1284.06C1025.76 1285.51 1024.61 1286.69 1023.15 1287.57C1021.73 1288.43 1020.13 1288.85 1018.36 1288.85Z" fill="#737370"/>
<path d="M263.259 523.795L228.102 654.406H216.597L251.753 523.795H263.259ZM356.995 639.491C349.964 639.491 343.696 638.284 338.192 635.869C332.723 633.455 328.373 630.099 325.142 625.802C321.945 621.469 320.205 616.445 319.921 610.727H333.345C333.629 614.243 334.836 617.279 336.967 619.836C339.097 622.357 341.885 624.31 345.33 625.695C348.774 627.08 352.592 627.773 356.782 627.773C361.47 627.773 365.624 626.956 369.247 625.322C372.869 623.689 375.71 621.416 377.769 618.504C379.829 615.592 380.859 612.219 380.859 608.384C380.859 604.371 379.865 600.837 377.876 597.783C375.887 594.694 372.975 592.279 369.14 590.539C365.305 588.799 360.617 587.929 355.078 587.929H346.342V576.21H355.078C359.41 576.21 363.21 575.429 366.477 573.866C369.779 572.304 372.354 570.102 374.2 567.261C376.083 564.42 377.024 561.082 377.024 557.247C377.024 553.554 376.207 550.34 374.573 547.606C372.94 544.871 370.632 542.741 367.649 541.214C364.701 539.687 361.221 538.923 357.208 538.923C353.444 538.923 349.893 539.616 346.555 541.001C343.252 542.35 340.553 544.321 338.458 546.913C336.363 549.47 335.227 552.56 335.049 556.182H322.265C322.478 550.464 324.2 545.457 327.432 541.161C330.664 536.828 334.889 533.455 340.11 531.04C345.365 528.625 351.136 527.418 357.421 527.418C364.169 527.418 369.957 528.785 374.786 531.519C379.616 534.218 383.327 537.787 385.919 542.226C388.512 546.665 389.808 551.459 389.808 556.608C389.808 562.751 388.192 567.989 384.96 572.322C381.764 576.654 377.414 579.655 371.91 581.324V582.176C378.799 583.312 384.179 586.242 388.05 590.965C391.921 595.653 393.856 601.459 393.856 608.384C393.856 614.314 392.24 619.641 389.009 624.364C385.813 629.051 381.445 632.744 375.905 635.443C370.365 638.142 364.062 639.491 356.995 639.491ZM463.156 573.44V561.935H528.781V573.44H463.156ZM463.156 604.974V593.469H528.781V604.974H463.156ZM634.477 639.491C626.451 639.491 619.615 637.308 613.969 632.94C608.322 628.536 604.008 622.162 601.025 613.817C598.042 605.436 596.55 595.315 596.55 583.455C596.55 571.665 598.042 561.597 601.025 553.252C604.043 544.871 608.376 538.479 614.022 534.076C619.704 529.637 626.522 527.418 634.477 527.418C642.431 527.418 649.232 529.637 654.878 534.076C660.56 538.479 664.892 544.871 667.875 553.252C670.893 561.597 672.403 571.665 672.403 583.455C672.403 595.315 670.911 605.436 667.928 613.817C664.945 622.162 660.631 628.536 654.984 632.94C649.338 637.308 642.502 639.491 634.477 639.491ZM634.477 627.773C642.431 627.773 648.61 623.937 653.013 616.267C657.417 608.597 659.619 597.659 659.619 583.455C659.619 574.009 658.607 565.965 656.582 559.325C654.594 552.684 651.717 547.624 647.953 544.143C644.224 540.663 639.732 538.923 634.477 538.923C626.593 538.923 620.432 542.812 615.993 550.589C611.554 558.33 609.335 569.286 609.335 583.455C609.335 592.901 610.329 600.926 612.317 607.531C614.306 614.136 617.165 619.161 620.893 622.606C624.658 626.05 629.185 627.773 634.477 627.773ZM707.799 623.085L706.946 628.838C706.343 632.886 705.419 637.219 704.176 641.835C702.969 646.452 701.708 650.802 700.395 654.886C699.081 658.969 697.998 662.219 697.145 664.634H687.557C688.019 662.361 688.623 659.36 689.368 655.631C690.114 651.903 690.86 647.73 691.605 643.114C692.387 638.533 693.026 633.845 693.523 629.051L694.162 623.085H707.799ZM763.29 639.491C758.815 639.42 754.341 638.568 749.866 636.935C745.392 635.301 741.308 632.549 737.615 628.678C733.922 624.772 730.956 619.499 728.719 612.858C726.482 606.182 725.363 597.801 725.363 587.716C725.363 578.057 726.269 569.499 728.08 562.041C729.891 554.548 732.519 548.245 735.964 543.131C739.408 537.982 743.563 534.076 748.428 531.413C753.329 528.749 758.851 527.418 764.994 527.418C771.102 527.418 776.535 528.643 781.294 531.093C786.088 533.508 789.994 536.881 793.013 541.214C796.031 545.546 797.984 550.536 798.872 556.182H785.875C784.667 551.281 782.324 547.215 778.844 543.984C775.363 540.752 770.747 539.136 764.994 539.136C756.542 539.136 749.884 542.812 745.019 550.163C740.189 557.513 737.757 567.83 737.721 581.111H738.574C740.562 578.092 742.924 575.518 745.658 573.387C748.428 571.221 751.482 569.552 754.82 568.38C758.158 567.208 761.692 566.622 765.42 566.622C771.67 566.622 777.388 568.185 782.572 571.31C787.757 574.399 791.912 578.678 795.037 584.147C798.162 589.58 799.724 595.812 799.724 602.844C799.724 609.591 798.215 615.77 795.197 621.381C792.178 626.956 787.934 631.395 782.466 634.697C777.032 637.964 770.64 639.562 763.29 639.491ZM763.29 627.773C767.764 627.773 771.777 626.654 775.328 624.417C778.915 622.18 781.738 619.179 783.797 615.415C785.893 611.651 786.94 607.46 786.94 602.844C786.94 598.334 785.928 594.232 783.904 590.539C781.915 586.81 779.163 583.845 775.648 581.643C772.167 579.442 768.19 578.341 763.716 578.341C760.342 578.341 757.199 579.016 754.287 580.365C751.376 581.679 748.819 583.49 746.617 585.798C744.451 588.107 742.746 590.752 741.503 593.735C740.26 596.683 739.639 599.79 739.639 603.057C739.639 607.389 740.651 611.437 742.675 615.202C744.735 618.966 747.54 622.002 751.091 624.31C754.678 626.619 758.744 627.773 763.29 627.773ZM856.893 639.491C852.419 639.42 847.944 638.568 843.47 636.935C838.995 635.301 834.912 632.549 831.218 628.678C827.525 624.772 824.56 619.499 822.323 612.858C820.086 606.182 818.967 597.801 818.967 587.716C818.967 578.057 819.873 569.499 821.684 562.041C823.495 554.548 826.123 548.245 829.567 543.131C833.012 537.982 837.167 534.076 842.032 531.413C846.932 528.749 852.454 527.418 858.598 527.418C864.706 527.418 870.139 528.643 874.897 531.093C879.691 533.508 883.598 536.881 886.616 541.214C889.635 545.546 891.588 550.536 892.476 556.182H879.478C878.271 551.281 875.927 547.215 872.447 543.984C868.967 540.752 864.35 539.136 858.598 539.136C850.146 539.136 843.488 542.812 838.623 550.163C833.793 557.513 831.36 567.83 831.325 581.111H832.177C834.166 578.092 836.527 575.518 839.262 573.387C842.032 571.221 845.086 569.552 848.424 568.38C851.762 567.208 855.295 566.622 859.024 566.622C865.274 566.622 870.991 568.185 876.176 571.31C881.36 574.399 885.515 578.678 888.64 584.147C891.765 589.58 893.328 595.812 893.328 602.844C893.328 609.591 891.819 615.77 888.8 621.381C885.782 626.956 881.538 631.395 876.069 634.697C870.636 637.964 864.244 639.562 856.893 639.491ZM856.893 627.773C861.368 627.773 865.38 626.654 868.931 624.417C872.518 622.18 875.341 619.179 877.401 615.415C879.496 611.651 880.544 607.46 880.544 602.844C880.544 598.334 879.532 594.232 877.507 590.539C875.519 586.81 872.767 583.845 869.251 581.643C865.771 579.442 861.794 578.341 857.319 578.341C853.946 578.341 850.803 579.016 847.891 580.365C844.979 581.679 842.422 583.49 840.221 585.798C838.054 588.107 836.35 590.752 835.107 593.735C833.864 596.683 833.243 599.79 833.243 603.057C833.243 607.389 834.255 611.437 836.279 615.202C838.338 618.966 841.144 622.002 844.695 624.31C848.282 626.619 852.348 627.773 856.893 627.773ZM918.523 638.852C915.895 638.852 913.64 637.911 911.758 636.029C909.876 634.147 908.935 631.892 908.935 629.264C908.935 626.636 909.876 624.381 911.758 622.499C913.64 620.617 915.895 619.676 918.523 619.676C921.151 619.676 923.406 620.617 925.288 622.499C927.17 624.381 928.111 626.636 928.111 629.264C928.111 631.004 927.667 632.602 926.779 634.058C925.927 635.514 924.773 636.686 923.317 637.574C921.897 638.426 920.299 638.852 918.523 638.852ZM959.832 638.852C957.204 638.852 954.949 637.911 953.067 636.029C951.185 634.147 950.244 631.892 950.244 629.264C950.244 626.636 951.185 624.381 953.067 622.499C954.949 620.617 957.204 619.676 959.832 619.676C962.46 619.676 964.714 620.617 966.597 622.499C968.479 624.381 969.42 626.636 969.42 629.264C969.42 631.004 968.976 632.602 968.088 634.058C967.236 635.514 966.082 636.686 964.626 637.574C963.205 638.426 961.607 638.852 959.832 638.852ZM1001.14 638.852C998.512 638.852 996.257 637.911 994.375 636.029C992.493 634.147 991.552 631.892 991.552 629.264C991.552 626.636 992.493 624.381 994.375 622.499C996.257 620.617 998.512 619.676 1001.14 619.676C1003.77 619.676 1006.02 620.617 1007.91 622.499C1009.79 624.381 1010.73 626.636 1010.73 629.264C1010.73 631.004 1010.28 632.602 1009.4 634.058C1008.54 635.514 1007.39 636.686 1005.93 637.574C1004.51 638.426 1002.92 638.852 1001.14 638.852Z" fill="#737370"/>
<path d="M1242.26 654V642.494C1242.26 639.227 1242.9 635.889 1244.17 632.48C1245.45 629.071 1247.14 625.857 1249.23 622.839C1251.33 619.82 1253.6 617.299 1256.05 615.275L1266.07 621.188C1264.08 624.312 1262.44 627.58 1261.17 630.989C1259.92 634.398 1259.3 638.197 1259.3 642.388V654H1242.26ZM1269.16 654V642.494C1269.16 639.227 1269.8 635.889 1271.07 632.48C1272.35 629.071 1274.04 625.857 1276.13 622.839C1278.23 619.82 1280.5 617.299 1282.95 615.275L1292.97 621.188C1290.98 624.312 1289.34 627.58 1288.07 630.989C1286.82 634.398 1286.2 638.197 1286.2 642.388V654H1269.16ZM1306.12 729V712.381L1344.96 676.425C1348.26 673.229 1351.03 670.353 1353.26 667.796C1355.54 665.239 1357.26 662.736 1358.43 660.286C1359.6 657.8 1360.19 655.119 1360.19 652.242C1360.19 649.046 1359.46 646.294 1358.01 643.986C1356.55 641.642 1354.56 639.849 1352.04 638.606C1349.52 637.327 1346.66 636.688 1343.46 636.688C1340.13 636.688 1337.21 637.363 1334.73 638.712C1332.24 640.062 1330.32 641.997 1328.98 644.518C1327.63 647.04 1326.95 650.04 1326.95 653.521H1305.06C1305.06 646.383 1306.67 640.186 1309.91 634.93C1313.14 629.675 1317.66 625.609 1323.49 622.732C1329.31 619.856 1336.02 618.418 1343.62 618.418C1351.44 618.418 1358.24 619.803 1364.02 622.572C1369.85 625.307 1374.38 629.107 1377.61 633.972C1380.84 638.837 1382.46 644.412 1382.46 650.697C1382.46 654.817 1381.64 658.883 1380 662.896C1378.41 666.908 1375.55 671.365 1371.43 676.266C1367.31 681.131 1361.5 686.972 1354.01 693.79L1338.08 709.398V710.143H1383.89V729H1306.12ZM1419.84 619.909V631.415C1419.84 634.682 1419.2 638.02 1417.92 641.429C1416.67 644.803 1415.01 647.999 1412.91 651.017C1410.82 654 1408.53 656.539 1406.04 658.634L1396.03 652.722C1397.8 649.916 1399.36 646.809 1400.71 643.4C1402.1 639.991 1402.79 636.031 1402.79 631.521V619.909H1419.84ZM1446.63 619.909V631.415C1446.63 634.682 1445.99 638.02 1444.71 641.429C1443.47 644.803 1441.8 647.999 1439.7 651.017C1437.61 654 1435.3 656.539 1432.78 658.634L1422.77 652.722C1424.58 649.916 1426.16 646.809 1427.51 643.4C1428.89 639.991 1429.58 636.031 1429.58 631.521V619.909H1446.63Z" fill="#FA8F00"/>
<path d="M1140.68 734.966L1128.32 722.714L1169.76 681.273L1128.32 639.884L1140.68 627.58L1194.37 681.273L1140.68 734.966ZM1084.75 704.284V686.919H1177.17L1159.7 704.284H1084.75ZM1084.75 675.626V658.261H1159.7L1177.17 675.626H1084.75Z" fill="#82D1F5"/>
<path d="M262.259 681.795L227.102 812.406H215.597L250.753 681.795H262.259ZM353.225 797.491C346.975 797.491 341.347 796.249 336.34 793.763C331.333 791.277 327.32 787.868 324.301 783.536C321.283 779.203 319.632 774.267 319.347 768.727H332.132C332.629 773.663 334.866 777.747 338.843 780.979C342.856 784.175 347.65 785.773 353.225 785.773C357.7 785.773 361.677 784.725 365.157 782.63C368.673 780.535 371.425 777.658 373.414 774.001C375.438 770.308 376.45 766.135 376.45 761.483C376.45 756.724 375.402 752.481 373.307 748.752C371.247 744.988 368.406 742.023 364.784 739.857C361.162 737.69 357.025 736.589 352.373 736.554C349.035 736.518 345.608 737.033 342.093 738.099C338.577 739.129 335.683 740.46 333.41 742.094L321.052 740.602L327.657 686.909H384.333V698.628H338.737L334.901 730.801H335.541C337.778 729.026 340.583 727.552 343.957 726.38C347.33 725.208 350.846 724.622 354.504 724.622C361.18 724.622 367.128 726.22 372.348 729.416C377.604 732.577 381.723 736.909 384.706 742.413C387.725 747.918 389.234 754.203 389.234 761.27C389.234 768.23 387.671 774.445 384.546 779.913C381.457 785.347 377.195 789.643 371.762 792.804C366.329 795.929 360.15 797.491 353.225 797.491ZM457.908 731.44V719.935H523.533V731.44H457.908ZM457.908 762.974V751.469H523.533V762.974H457.908ZM629.229 797.491C621.203 797.491 614.367 795.308 608.721 790.94C603.074 786.536 598.76 780.162 595.777 771.817C592.794 763.436 591.302 753.315 591.302 741.455C591.302 729.665 592.794 719.597 595.777 711.252C598.795 702.871 603.128 696.479 608.774 692.076C614.456 687.637 621.274 685.418 629.229 685.418C637.183 685.418 643.983 687.637 649.63 692.076C655.312 696.479 659.644 702.871 662.627 711.252C665.645 719.597 667.155 729.665 667.155 741.455C667.155 753.315 665.663 763.436 662.68 771.817C659.697 780.162 655.383 786.536 649.736 790.94C644.09 795.308 637.254 797.491 629.229 797.491ZM629.229 785.773C637.183 785.773 643.362 781.937 647.765 774.267C652.169 766.597 654.371 755.659 654.371 741.455C654.371 732.009 653.358 723.965 651.334 717.325C649.346 710.684 646.469 705.624 642.705 702.143C638.976 698.663 634.484 696.923 629.229 696.923C621.345 696.923 615.184 700.812 610.745 708.589C606.306 716.33 604.086 727.286 604.086 741.455C604.086 750.901 605.081 758.926 607.069 765.531C609.058 772.136 611.917 777.161 615.645 780.606C619.41 784.05 623.937 785.773 629.229 785.773ZM702.551 781.085L701.698 786.838C701.095 790.886 700.171 795.219 698.928 799.835C697.721 804.452 696.46 808.802 695.146 812.886C693.833 816.969 692.749 820.219 691.897 822.634H682.309C682.771 820.361 683.374 817.36 684.12 813.631C684.866 809.903 685.612 805.73 686.357 801.114C687.139 796.533 687.778 791.845 688.275 787.051L688.914 781.085H702.551ZM723.072 773.628V762.761L771.012 686.909H778.896V703.741H773.569L737.347 761.057V761.909H801.907V773.628H723.072ZM774.421 796V770.325V765.265V686.909H786.992V796H774.421ZM857.451 797.491C849.426 797.491 842.59 795.308 836.943 790.94C831.297 786.536 826.982 780.162 823.999 771.817C821.017 763.436 819.525 753.315 819.525 741.455C819.525 729.665 821.017 719.597 823.999 711.252C827.018 702.871 831.35 696.479 836.997 692.076C842.678 687.637 849.497 685.418 857.451 685.418C865.406 685.418 872.206 687.637 877.852 692.076C883.534 696.479 887.867 702.871 890.85 711.252C893.868 719.597 895.377 729.665 895.377 741.455C895.377 753.315 893.886 763.436 890.903 771.817C887.92 780.162 883.605 786.536 877.959 790.94C872.313 795.308 865.477 797.491 857.451 797.491ZM857.451 785.773C865.406 785.773 871.585 781.937 875.988 774.267C880.392 766.597 882.593 755.659 882.593 741.455C882.593 732.009 881.581 723.965 879.557 717.325C877.568 710.684 874.692 705.624 870.928 702.143C867.199 698.663 862.707 696.923 857.451 696.923C849.568 696.923 843.406 700.812 838.968 708.589C834.529 716.33 832.309 727.286 832.309 741.455C832.309 750.901 833.303 758.926 835.292 765.531C837.281 772.136 840.139 777.161 843.868 780.606C847.632 784.05 852.16 785.773 857.451 785.773ZM921.185 796.852C918.557 796.852 916.302 795.911 914.42 794.029C912.538 792.147 911.597 789.892 911.597 787.264C911.597 784.636 912.538 782.381 914.42 780.499C916.302 778.617 918.557 777.676 921.185 777.676C923.813 777.676 926.068 778.617 927.95 780.499C929.832 782.381 930.773 784.636 930.773 787.264C930.773 789.004 930.329 790.602 929.442 792.058C928.589 793.514 927.435 794.686 925.979 795.574C924.559 796.426 922.961 796.852 921.185 796.852ZM962.494 796.852C959.866 796.852 957.611 795.911 955.729 794.029C953.847 792.147 952.906 789.892 952.906 787.264C952.906 784.636 953.847 782.381 955.729 780.499C957.611 778.617 959.866 777.676 962.494 777.676C965.122 777.676 967.377 778.617 969.259 780.499C971.141 782.381 972.082 784.636 972.082 787.264C972.082 789.004 971.638 790.602 970.75 792.058C969.898 793.514 968.744 794.686 967.288 795.574C965.867 796.426 964.269 796.852 962.494 796.852ZM1003.8 796.852C1001.17 796.852 998.92 795.911 997.037 794.029C995.155 792.147 994.214 789.892 994.214 787.264C994.214 784.636 995.155 782.381 997.037 780.499C998.92 778.617 1001.17 777.676 1003.8 777.676C1006.43 777.676 1008.69 778.617 1010.57 780.499C1012.45 782.381 1013.39 784.636 1013.39 787.264C1013.39 789.004 1012.95 790.602 1012.06 792.058C1011.21 793.514 1010.05 794.686 1008.6 795.574C1007.18 796.426 1005.58 796.852 1003.8 796.852Z" fill="#737370"/>
<path d="M79.8423 741V724.381L118.674 688.425C121.977 685.229 124.746 682.353 126.984 679.796C129.256 677.239 130.979 674.736 132.151 672.286C133.322 669.8 133.908 667.119 133.908 664.242C133.908 661.046 133.18 658.294 131.724 655.986C130.268 653.642 128.28 651.849 125.759 650.606C123.237 649.327 120.379 648.688 117.183 648.688C113.844 648.688 110.933 649.363 108.447 650.712C105.961 652.062 104.043 653.997 102.694 656.518C101.344 659.04 100.67 662.04 100.67 665.521H78.777C78.777 658.383 80.3928 652.186 83.6243 646.93C86.8558 641.675 91.3835 637.609 97.2074 634.732C103.031 631.856 109.743 630.418 117.342 630.418C125.155 630.418 131.955 631.803 137.744 634.572C143.567 637.307 148.095 641.107 151.327 645.972C154.558 650.837 156.174 656.412 156.174 662.697C156.174 666.817 155.357 670.883 153.724 674.896C152.126 678.908 149.267 683.365 145.148 688.266C141.028 693.131 135.222 698.972 127.729 705.79L111.803 721.398V722.143H157.612V741H79.8423Z" fill="#006CA9"/>
<line x1="717" y1="1139.5" x2="1034" y2="1139.5" stroke="#FA8F00" stroke-width="5"/>
<line x1="717" y1="1320.5" x2="1034" y2="1320.5" stroke="#737370" stroke-width="5"/>
<path d="M283.259 1484.8L248.102 1615.41H236.597L271.753 1484.8H283.259ZM376.995 1600.49C369.964 1600.49 363.696 1599.28 358.192 1596.87C352.723 1594.45 348.373 1591.1 345.142 1586.8C341.945 1582.47 340.205 1577.44 339.921 1571.73H353.345C353.629 1575.24 354.836 1578.28 356.967 1580.84C359.097 1583.36 361.885 1585.31 365.33 1586.7C368.774 1588.08 372.592 1588.77 376.782 1588.77C381.47 1588.77 385.624 1587.96 389.247 1586.32C392.869 1584.69 395.71 1582.42 397.769 1579.5C399.829 1576.59 400.859 1573.22 400.859 1569.38C400.859 1565.37 399.865 1561.84 397.876 1558.78C395.887 1555.69 392.975 1553.28 389.14 1551.54C385.305 1549.8 380.617 1548.93 375.078 1548.93H366.342V1537.21H375.078C379.41 1537.21 383.21 1536.43 386.477 1534.87C389.779 1533.3 392.354 1531.1 394.2 1528.26C396.083 1525.42 397.024 1522.08 397.024 1518.25C397.024 1514.55 396.207 1511.34 394.573 1508.61C392.94 1505.87 390.632 1503.74 387.649 1502.21C384.701 1500.69 381.221 1499.92 377.208 1499.92C373.444 1499.92 369.893 1500.62 366.555 1502C363.252 1503.35 360.553 1505.32 358.458 1507.91C356.363 1510.47 355.227 1513.56 355.049 1517.18H342.265C342.478 1511.46 344.2 1506.46 347.432 1502.16C350.664 1497.83 354.889 1494.45 360.11 1492.04C365.365 1489.62 371.136 1488.42 377.421 1488.42C384.169 1488.42 389.957 1489.78 394.786 1492.52C399.616 1495.22 403.327 1498.79 405.919 1503.23C408.512 1507.66 409.808 1512.46 409.808 1517.61C409.808 1523.75 408.192 1528.99 404.96 1533.32C401.764 1537.65 397.414 1540.65 391.91 1542.32V1543.18C398.799 1544.31 404.179 1547.24 408.05 1551.97C411.921 1556.65 413.856 1562.46 413.856 1569.38C413.856 1575.31 412.24 1580.64 409.009 1585.36C405.813 1590.05 401.445 1593.74 395.905 1596.44C390.365 1599.14 384.062 1600.49 376.995 1600.49ZM483.156 1534.44V1522.93H548.781V1534.44H483.156ZM483.156 1565.97V1554.47H548.781V1565.97H483.156ZM657.246 1489.91V1599H644.036V1503.76H643.397L616.763 1521.44V1508.02L644.036 1489.91H657.246ZM701.138 1584.09L700.286 1589.84C699.683 1593.89 698.759 1598.22 697.516 1602.84C696.309 1607.45 695.048 1611.8 693.734 1615.89C692.42 1619.97 691.337 1623.22 690.485 1625.63H680.897C681.359 1623.36 681.962 1620.36 682.708 1616.63C683.454 1612.9 684.2 1608.73 684.945 1604.11C685.727 1599.53 686.366 1594.85 686.863 1590.05L687.502 1584.09H701.138ZM756.629 1600.49C752.155 1600.42 747.681 1599.57 743.206 1597.93C738.732 1596.3 734.648 1593.55 730.955 1589.68C727.262 1585.77 724.296 1580.5 722.059 1573.86C719.822 1567.18 718.703 1558.8 718.703 1548.72C718.703 1539.06 719.609 1530.5 721.42 1523.04C723.231 1515.55 725.859 1509.25 729.303 1504.13C732.748 1498.98 736.903 1495.08 741.768 1492.41C746.669 1489.75 752.191 1488.42 758.334 1488.42C764.442 1488.42 769.875 1489.64 774.634 1492.09C779.428 1494.51 783.334 1497.88 786.352 1502.21C789.371 1506.55 791.324 1511.54 792.212 1517.18H779.215C778.007 1512.28 775.664 1508.22 772.183 1504.98C768.703 1501.75 764.087 1500.14 758.334 1500.14C749.882 1500.14 743.224 1503.81 738.359 1511.16C733.529 1518.51 731.097 1528.83 731.061 1542.11H731.914C733.902 1539.09 736.264 1536.52 738.998 1534.39C741.768 1532.22 744.822 1530.55 748.16 1529.38C751.498 1528.21 755.031 1527.62 758.76 1527.62C765.01 1527.62 770.727 1529.18 775.912 1532.31C781.097 1535.4 785.252 1539.68 788.377 1545.15C791.502 1550.58 793.064 1556.81 793.064 1563.84C793.064 1570.59 791.555 1576.77 788.536 1582.38C785.518 1587.96 781.274 1592.39 775.806 1595.7C770.372 1598.96 763.98 1600.56 756.629 1600.49ZM756.629 1588.77C761.104 1588.77 765.117 1587.65 768.668 1585.42C772.254 1583.18 775.078 1580.18 777.137 1576.41C779.232 1572.65 780.28 1568.46 780.28 1563.84C780.28 1559.33 779.268 1555.23 777.244 1551.54C775.255 1547.81 772.503 1544.85 768.987 1542.64C765.507 1540.44 761.53 1539.34 757.056 1539.34C753.682 1539.34 750.539 1540.02 747.627 1541.37C744.715 1542.68 742.159 1544.49 739.957 1546.8C737.791 1549.11 736.086 1551.75 734.843 1554.74C733.6 1557.68 732.979 1560.79 732.979 1564.06C732.979 1568.39 733.991 1572.44 736.015 1576.2C738.075 1579.97 740.88 1583 744.431 1585.31C748.018 1587.62 752.084 1588.77 756.629 1588.77ZM850.233 1600.49C845.759 1600.42 841.284 1599.57 836.81 1597.93C832.335 1596.3 828.251 1593.55 824.558 1589.68C820.865 1585.77 817.9 1580.5 815.663 1573.86C813.425 1567.18 812.307 1558.8 812.307 1548.72C812.307 1539.06 813.212 1530.5 815.023 1523.04C816.835 1515.55 819.462 1509.25 822.907 1504.13C826.352 1498.98 830.506 1495.08 835.371 1492.41C840.272 1489.75 845.794 1488.42 851.938 1488.42C858.045 1488.42 863.479 1489.64 868.237 1492.09C873.031 1494.51 876.938 1497.88 879.956 1502.21C882.974 1506.55 884.928 1511.54 885.815 1517.18H872.818C871.611 1512.28 869.267 1508.22 865.787 1504.98C862.307 1501.75 857.69 1500.14 851.938 1500.14C843.486 1500.14 836.827 1503.81 831.962 1511.16C827.133 1518.51 824.7 1528.83 824.665 1542.11H825.517C827.506 1539.09 829.867 1536.52 832.602 1534.39C835.371 1532.22 838.425 1530.55 841.763 1529.38C845.102 1528.21 848.635 1527.62 852.364 1527.62C858.614 1527.62 864.331 1529.18 869.516 1532.31C874.7 1535.4 878.855 1539.68 881.98 1545.15C885.105 1550.58 886.668 1556.81 886.668 1563.84C886.668 1570.59 885.158 1576.77 882.14 1582.38C879.121 1587.96 874.878 1592.39 869.409 1595.7C863.976 1598.96 857.584 1600.56 850.233 1600.49ZM850.233 1588.77C854.707 1588.77 858.72 1587.65 862.271 1585.42C865.858 1583.18 868.681 1580.18 870.741 1576.41C872.836 1572.65 873.884 1568.46 873.884 1563.84C873.884 1559.33 872.871 1555.23 870.847 1551.54C868.859 1547.81 866.107 1544.85 862.591 1542.64C859.111 1540.44 855.134 1539.34 850.659 1539.34C847.286 1539.34 844.143 1540.02 841.231 1541.37C838.319 1542.68 835.762 1544.49 833.56 1546.8C831.394 1549.11 829.69 1551.75 828.447 1554.74C827.204 1557.68 826.582 1560.79 826.582 1564.06C826.582 1568.39 827.594 1572.44 829.619 1576.2C831.678 1579.97 834.484 1583 838.035 1585.31C841.621 1587.62 845.688 1588.77 850.233 1588.77ZM911.863 1599.85C909.235 1599.85 906.98 1598.91 905.098 1597.03C903.216 1595.15 902.275 1592.89 902.275 1590.26C902.275 1587.64 903.216 1585.38 905.098 1583.5C906.98 1581.62 909.235 1580.68 911.863 1580.68C914.491 1580.68 916.746 1581.62 918.628 1583.5C920.51 1585.38 921.451 1587.64 921.451 1590.26C921.451 1592 921.007 1593.6 920.119 1595.06C919.267 1596.51 918.113 1597.69 916.657 1598.57C915.237 1599.43 913.638 1599.85 911.863 1599.85ZM953.172 1599.85C950.544 1599.85 948.289 1598.91 946.407 1597.03C944.525 1595.15 943.583 1592.89 943.583 1590.26C943.583 1587.64 944.525 1585.38 946.407 1583.5C948.289 1581.62 950.544 1580.68 953.172 1580.68C955.799 1580.68 958.054 1581.62 959.936 1583.5C961.819 1585.38 962.76 1587.64 962.76 1590.26C962.76 1592 962.316 1593.6 961.428 1595.06C960.576 1596.51 959.422 1597.69 957.966 1598.57C956.545 1599.43 954.947 1599.85 953.172 1599.85ZM994.48 1599.85C991.852 1599.85 989.597 1598.91 987.715 1597.03C985.833 1595.15 984.892 1592.89 984.892 1590.26C984.892 1587.64 985.833 1585.38 987.715 1583.5C989.597 1581.62 991.852 1580.68 994.48 1580.68C997.108 1580.68 999.363 1581.62 1001.25 1583.5C1003.13 1585.38 1004.07 1587.64 1004.07 1590.26C1004.07 1592 1003.62 1593.6 1002.74 1595.06C1001.88 1596.51 1000.73 1597.69 999.274 1598.57C997.854 1599.43 996.256 1599.85 994.48 1599.85Z" fill="#737370"/>
<path d="M125.686 1684.49C118.158 1684.49 111.446 1683.11 105.551 1680.34C99.6918 1677.57 95.0398 1673.75 91.5952 1668.88C88.1506 1664.02 86.3572 1658.44 86.2152 1652.16H108.587C108.836 1656.38 110.612 1659.81 113.914 1662.44C117.217 1665.07 121.141 1666.38 125.686 1666.38C129.308 1666.38 132.504 1665.58 135.274 1663.98C138.08 1662.35 140.263 1660.1 141.826 1657.22C143.424 1654.31 144.223 1650.97 144.223 1647.2C144.223 1643.37 143.406 1640 141.773 1637.08C140.175 1634.17 137.955 1631.9 135.114 1630.27C132.273 1628.63 129.024 1627.8 125.366 1627.76C122.17 1627.76 119.063 1628.42 116.045 1629.73C113.062 1631.05 110.736 1632.84 109.067 1635.11L88.5589 1631.44L93.7259 1573.91H160.416V1592.77H112.742L109.919 1620.09H110.558C112.476 1617.39 115.37 1615.16 119.241 1613.38C123.112 1611.6 127.444 1610.72 132.238 1610.72C138.808 1610.72 144.667 1612.26 149.816 1615.35C154.965 1618.44 159.031 1622.68 162.014 1628.08C164.997 1633.44 166.471 1639.62 166.435 1646.62C166.471 1653.97 164.766 1660.5 161.322 1666.22C157.913 1671.9 153.136 1676.38 146.993 1679.64C140.885 1682.88 133.783 1684.49 125.686 1684.49Z" fill="#006CA9"/>
<path d="M1262.26 1608V1596.49C1262.26 1593.23 1262.9 1589.89 1264.17 1586.48C1265.45 1583.07 1267.14 1579.86 1269.23 1576.84C1271.33 1573.82 1273.6 1571.3 1276.05 1569.27L1286.07 1575.19C1284.08 1578.31 1282.44 1581.58 1281.17 1584.99C1279.92 1588.4 1279.3 1592.2 1279.3 1596.39V1608H1262.26ZM1289.16 1608V1596.49C1289.16 1593.23 1289.8 1589.89 1291.07 1586.48C1292.35 1583.07 1294.04 1579.86 1296.13 1576.84C1298.23 1573.82 1300.5 1571.3 1302.95 1569.27L1312.97 1575.19C1310.98 1578.31 1309.34 1581.58 1308.07 1584.99C1306.82 1588.4 1306.2 1592.2 1306.2 1596.39V1608H1289.16ZM1326.76 1683V1573.91H1370.44C1378.47 1573.91 1385.16 1575.1 1390.52 1577.48C1395.89 1579.86 1399.92 1583.16 1402.62 1587.39C1405.31 1591.58 1406.66 1596.41 1406.66 1601.87C1406.66 1606.14 1405.81 1609.88 1404.11 1613.11C1402.4 1616.31 1400.06 1618.94 1397.08 1621C1394.13 1623.02 1390.75 1624.46 1386.95 1625.31V1626.38C1391.11 1626.55 1395 1627.73 1398.62 1629.89C1402.28 1632.06 1405.24 1635.1 1407.52 1639C1409.79 1642.87 1410.92 1647.49 1410.92 1652.85C1410.92 1658.64 1409.49 1663.81 1406.61 1668.35C1403.77 1672.86 1399.56 1676.43 1393.99 1679.06C1388.41 1681.69 1381.54 1683 1373.37 1683H1326.76ZM1349.83 1664.14H1368.63C1375.06 1664.14 1379.75 1662.92 1382.69 1660.47C1385.64 1657.98 1387.11 1654.68 1387.11 1650.56C1387.11 1647.54 1386.39 1644.88 1384.93 1642.57C1383.47 1640.26 1381.4 1638.45 1378.7 1637.14C1376.03 1635.82 1372.86 1635.17 1369.16 1635.17H1349.83V1664.14ZM1349.83 1619.56H1366.93C1370.09 1619.56 1372.89 1619.01 1375.34 1617.91C1377.83 1616.77 1379.78 1615.17 1381.2 1613.11C1382.66 1611.05 1383.39 1608.59 1383.39 1605.71C1383.39 1601.77 1381.98 1598.59 1379.18 1596.17C1376.41 1593.76 1372.47 1592.55 1367.35 1592.55H1349.83V1619.56ZM1477.97 1648.16V1601.18H1500.67V1683H1478.88V1668.14H1478.03C1476.18 1672.93 1473.11 1676.79 1468.81 1679.7C1464.55 1682.61 1459.35 1684.07 1453.21 1684.07C1447.74 1684.07 1442.92 1682.82 1438.77 1680.34C1434.62 1677.85 1431.37 1674.32 1429.02 1669.74C1426.71 1665.16 1425.54 1659.67 1425.51 1653.28V1601.18H1448.2V1649.23C1448.23 1654.06 1449.53 1657.88 1452.09 1660.68C1454.64 1663.49 1458.07 1664.89 1462.37 1664.89C1465.1 1664.89 1467.66 1664.27 1470.04 1663.02C1472.42 1661.75 1474.33 1659.86 1475.79 1657.38C1477.28 1654.89 1478.01 1651.82 1477.97 1648.16ZM1518.39 1683V1669.47L1558.45 1619.88V1619.29H1519.78V1601.18H1585.77V1615.94L1548.17 1664.3V1664.89H1587.16V1683H1518.39ZM1604.08 1683V1669.47L1644.14 1619.88V1619.29H1605.47V1601.18H1671.47V1615.94L1633.86 1664.3V1664.89H1672.85V1683H1604.08ZM1709.22 1573.91V1585.41C1709.22 1588.68 1708.58 1592.02 1707.3 1595.43C1706.06 1598.8 1704.39 1602 1702.3 1605.02C1700.2 1608 1697.91 1610.54 1695.42 1612.63L1685.41 1606.72C1687.19 1603.92 1688.75 1600.81 1690.1 1597.4C1691.48 1593.99 1692.17 1590.03 1692.17 1585.52V1573.91H1709.22ZM1736.01 1573.91V1585.41C1736.01 1588.68 1735.37 1592.02 1734.1 1595.43C1732.85 1598.8 1731.18 1602 1729.09 1605.02C1726.99 1608 1724.69 1610.54 1722.16 1612.63L1712.15 1606.72C1713.96 1603.92 1715.54 1600.81 1716.89 1597.4C1718.28 1593.99 1718.97 1590.03 1718.97 1585.52V1573.91H1736.01Z" fill="#FA8F00"/>
<path d="M1160.68 1688.97L1148.32 1676.71L1189.76 1635.27L1148.32 1593.88L1160.68 1581.58L1214.37 1635.27L1160.68 1688.97ZM1104.75 1658.28V1640.92H1197.17L1179.7 1658.28H1104.75ZM1104.75 1629.63V1612.26H1179.7L1197.17 1629.63H1104.75Z" fill="#82D1F5"/>
<line x1="717" y1="1631.5" x2="1034" y2="1631.5" stroke="#737370" stroke-width="5"/>
<path d="M283.259 1659.8L248.102 1790.41H236.597L271.753 1659.8H283.259ZM374.225 1775.49C367.975 1775.49 362.347 1774.25 357.34 1771.76C352.333 1769.28 348.32 1765.87 345.301 1761.54C342.283 1757.2 340.632 1752.27 340.347 1746.73H353.132C353.629 1751.66 355.866 1755.75 359.843 1758.98C363.856 1762.17 368.65 1763.77 374.225 1763.77C378.7 1763.77 382.677 1762.73 386.157 1760.63C389.673 1758.53 392.425 1755.66 394.414 1752C396.438 1748.31 397.45 1744.13 397.45 1739.48C397.45 1734.72 396.402 1730.48 394.307 1726.75C392.247 1722.99 389.406 1720.02 385.784 1717.86C382.162 1715.69 378.025 1714.59 373.373 1714.55C370.035 1714.52 366.608 1715.03 363.093 1716.1C359.577 1717.13 356.683 1718.46 354.41 1720.09L342.052 1718.6L348.657 1664.91H405.333V1676.63H359.737L355.901 1708.8H356.541C358.778 1707.03 361.583 1705.55 364.957 1704.38C368.33 1703.21 371.846 1702.62 375.504 1702.62C382.18 1702.62 388.128 1704.22 393.348 1707.42C398.604 1710.58 402.723 1714.91 405.706 1720.41C408.725 1725.92 410.234 1732.2 410.234 1739.27C410.234 1746.23 408.671 1752.44 405.546 1757.91C402.457 1763.35 398.195 1767.64 392.762 1770.8C387.329 1773.93 381.15 1775.49 374.225 1775.49ZM478.908 1709.44V1697.93H544.533V1709.44H478.908ZM478.908 1740.97V1729.47H544.533V1740.97H478.908ZM652.998 1664.91V1774H639.788V1678.76H639.149L612.515 1696.44V1683.02L639.788 1664.91H652.998ZM696.89 1759.09L696.038 1764.84C695.434 1768.89 694.511 1773.22 693.268 1777.84C692.061 1782.45 690.8 1786.8 689.486 1790.89C688.172 1794.97 687.089 1798.22 686.237 1800.63H676.649C677.111 1798.36 677.714 1795.36 678.46 1791.63C679.206 1787.9 679.952 1783.73 680.697 1779.11C681.479 1774.53 682.118 1769.85 682.615 1765.05L683.254 1759.09H696.89ZM751.742 1775.49C743.717 1775.49 736.881 1773.31 731.234 1768.94C725.588 1764.54 721.273 1758.16 718.29 1749.82C715.308 1741.44 713.816 1731.32 713.816 1719.45C713.816 1707.66 715.308 1697.6 718.29 1689.25C721.309 1680.87 725.641 1674.48 731.288 1670.08C736.969 1665.64 743.788 1663.42 751.742 1663.42C759.697 1663.42 766.497 1665.64 772.143 1670.08C777.825 1674.48 782.158 1680.87 785.141 1689.25C788.159 1697.6 789.668 1707.66 789.668 1719.45C789.668 1731.32 788.177 1741.44 785.194 1749.82C782.211 1758.16 777.896 1764.54 772.25 1768.94C766.604 1773.31 759.768 1775.49 751.742 1775.49ZM751.742 1763.77C759.697 1763.77 765.876 1759.94 770.279 1752.27C774.683 1744.6 776.884 1733.66 776.884 1719.45C776.884 1710.01 775.872 1701.97 773.848 1695.32C771.859 1688.68 768.983 1683.62 765.219 1680.14C761.49 1676.66 756.998 1674.92 751.742 1674.92C743.859 1674.92 737.697 1678.81 733.259 1686.59C728.82 1694.33 726.6 1705.29 726.6 1719.45C726.6 1728.9 727.594 1736.93 729.583 1743.53C731.572 1750.14 734.43 1755.16 738.159 1758.61C741.923 1762.05 746.451 1763.77 751.742 1763.77ZM845.492 1775.49C837.467 1775.49 830.631 1773.31 824.984 1768.94C819.338 1764.54 815.023 1758.16 812.04 1749.82C809.058 1741.44 807.566 1731.32 807.566 1719.45C807.566 1707.66 809.058 1697.6 812.04 1689.25C815.059 1680.87 819.391 1674.48 825.038 1670.08C830.719 1665.64 837.538 1663.42 845.492 1663.42C853.447 1663.42 860.247 1665.64 865.893 1670.08C871.575 1674.48 875.908 1680.87 878.891 1689.25C881.909 1697.6 883.418 1707.66 883.418 1719.45C883.418 1731.32 881.927 1741.44 878.944 1749.82C875.961 1758.16 871.646 1764.54 866 1768.94C860.354 1773.31 853.518 1775.49 845.492 1775.49ZM845.492 1763.77C853.447 1763.77 859.626 1759.94 864.029 1752.27C868.433 1744.6 870.634 1733.66 870.634 1719.45C870.634 1710.01 869.622 1701.97 867.598 1695.32C865.609 1688.68 862.733 1683.62 858.969 1680.14C855.24 1676.66 850.748 1674.92 845.492 1674.92C837.609 1674.92 831.447 1678.81 827.009 1686.59C822.57 1694.33 820.35 1705.29 820.35 1719.45C820.35 1728.9 821.344 1736.93 823.333 1743.53C825.322 1750.14 828.18 1755.16 831.909 1758.61C835.673 1762.05 840.201 1763.77 845.492 1763.77ZM909.226 1774.85C906.598 1774.85 904.343 1773.91 902.461 1772.03C900.579 1770.15 899.638 1767.89 899.638 1765.26C899.638 1762.64 900.579 1760.38 902.461 1758.5C904.343 1756.62 906.598 1755.68 909.226 1755.68C911.854 1755.68 914.109 1756.62 915.991 1758.5C917.873 1760.38 918.814 1762.64 918.814 1765.26C918.814 1767 918.37 1768.6 917.483 1770.06C916.63 1771.51 915.476 1772.69 914.02 1773.57C912.6 1774.43 911.002 1774.85 909.226 1774.85ZM950.535 1774.85C947.907 1774.85 945.652 1773.91 943.77 1772.03C941.888 1770.15 940.947 1767.89 940.947 1765.26C940.947 1762.64 941.888 1760.38 943.77 1758.5C945.652 1756.62 947.907 1755.68 950.535 1755.68C953.163 1755.68 955.418 1756.62 957.3 1758.5C959.182 1760.38 960.123 1762.64 960.123 1765.26C960.123 1767 959.679 1768.6 958.791 1770.06C957.939 1771.51 956.785 1772.69 955.329 1773.57C953.908 1774.43 952.31 1774.85 950.535 1774.85ZM991.843 1774.85C989.216 1774.85 986.961 1773.91 985.078 1772.03C983.196 1770.15 982.255 1767.89 982.255 1765.26C982.255 1762.64 983.196 1760.38 985.078 1758.5C986.961 1756.62 989.216 1755.68 991.843 1755.68C994.471 1755.68 996.726 1756.62 998.608 1758.5C1000.49 1760.38 1001.43 1762.64 1001.43 1765.26C1001.43 1767 1000.99 1768.6 1000.1 1770.06C999.248 1771.51 998.093 1772.69 996.637 1773.57C995.217 1774.43 993.619 1774.85 991.843 1774.85Z" fill="#737370"/>
<line x1="718" y1="1806.5" x2="1035" y2="1806.5" stroke="#FA8F00" stroke-width="5"/>
<path d="M283.259 1998.8L248.102 2129.41H236.597L271.753 1998.8H283.259ZM376.995 2114.49C369.964 2114.49 363.696 2113.28 358.192 2110.87C352.723 2108.45 348.373 2105.1 345.142 2100.8C341.945 2096.47 340.205 2091.44 339.921 2085.73H353.345C353.629 2089.24 354.836 2092.28 356.967 2094.84C359.097 2097.36 361.885 2099.31 365.33 2100.7C368.774 2102.08 372.592 2102.77 376.782 2102.77C381.47 2102.77 385.624 2101.96 389.247 2100.32C392.869 2098.69 395.71 2096.42 397.769 2093.5C399.829 2090.59 400.859 2087.22 400.859 2083.38C400.859 2079.37 399.865 2075.84 397.876 2072.78C395.887 2069.69 392.975 2067.28 389.14 2065.54C385.305 2063.8 380.617 2062.93 375.078 2062.93H366.342V2051.21H375.078C379.41 2051.21 383.21 2050.43 386.477 2048.87C389.779 2047.3 392.354 2045.1 394.2 2042.26C396.083 2039.42 397.024 2036.08 397.024 2032.25C397.024 2028.55 396.207 2025.34 394.573 2022.61C392.94 2019.87 390.632 2017.74 387.649 2016.21C384.701 2014.69 381.221 2013.92 377.208 2013.92C373.444 2013.92 369.893 2014.62 366.555 2016C363.252 2017.35 360.553 2019.32 358.458 2021.91C356.363 2024.47 355.227 2027.56 355.049 2031.18H342.265C342.478 2025.46 344.2 2020.46 347.432 2016.16C350.664 2011.83 354.889 2008.45 360.11 2006.04C365.365 2003.62 371.136 2002.42 377.421 2002.42C384.169 2002.42 389.957 2003.78 394.786 2006.52C399.616 2009.22 403.327 2012.79 405.919 2017.23C408.512 2021.66 409.808 2026.46 409.808 2031.61C409.808 2037.75 408.192 2042.99 404.96 2047.32C401.764 2051.65 397.414 2054.65 391.91 2056.32V2057.18C398.799 2058.31 404.179 2061.24 408.05 2065.97C411.921 2070.65 413.856 2076.46 413.856 2083.38C413.856 2089.31 412.24 2094.64 409.009 2099.36C405.813 2104.05 401.445 2107.74 395.905 2110.44C390.365 2113.14 384.062 2114.49 376.995 2114.49ZM483.156 2048.44V2036.93H548.781V2048.44H483.156ZM483.156 2079.97V2068.47H548.781V2079.97H483.156ZM652.985 2114.49C646.735 2114.49 641.107 2113.25 636.099 2110.76C631.092 2108.28 627.08 2104.87 624.061 2100.54C621.043 2096.2 619.391 2091.27 619.107 2085.73H631.891C632.388 2090.66 634.626 2094.75 638.603 2097.98C642.616 2101.17 647.41 2102.77 652.985 2102.77C657.46 2102.77 661.437 2101.73 664.917 2099.63C668.433 2097.53 671.185 2094.66 673.173 2091C675.197 2087.31 676.21 2083.13 676.21 2078.48C676.21 2073.72 675.162 2069.48 673.067 2065.75C671.007 2061.99 668.166 2059.02 664.544 2056.86C660.922 2054.69 656.785 2053.59 652.133 2053.55C648.795 2053.52 645.368 2054.03 641.852 2055.1C638.337 2056.13 635.442 2057.46 633.17 2059.09L620.812 2057.6L627.417 2003.91H684.093V2015.63H638.496L634.661 2047.8H635.3C637.538 2046.03 640.343 2044.55 643.717 2043.38C647.09 2042.21 650.606 2041.62 654.263 2041.62C660.94 2041.62 666.888 2043.22 672.108 2046.42C677.364 2049.58 681.483 2053.91 684.466 2059.41C687.484 2064.92 688.994 2071.2 688.994 2078.27C688.994 2085.23 687.431 2091.44 684.306 2096.91C681.217 2102.35 676.955 2106.64 671.522 2109.8C666.089 2112.93 659.91 2114.49 652.985 2114.49ZM725.015 2098.09L724.163 2103.84C723.559 2107.89 722.636 2112.22 721.393 2116.84C720.186 2121.45 718.925 2125.8 717.611 2129.89C716.297 2133.97 715.214 2137.22 714.362 2139.63H704.774C705.236 2137.36 705.839 2134.36 706.585 2130.63C707.331 2126.9 708.077 2122.73 708.822 2118.11C709.604 2113.53 710.243 2108.85 710.74 2104.05L711.379 2098.09H725.015ZM779.867 2114.49C771.842 2114.49 765.006 2112.31 759.359 2107.94C753.713 2103.54 749.398 2097.16 746.415 2088.82C743.433 2080.44 741.941 2070.32 741.941 2058.45C741.941 2046.66 743.433 2036.6 746.415 2028.25C749.434 2019.87 753.766 2013.48 759.413 2009.08C765.094 2004.64 771.913 2002.42 779.867 2002.42C787.822 2002.42 794.622 2004.64 800.268 2009.08C805.95 2013.48 810.283 2019.87 813.266 2028.25C816.284 2036.6 817.793 2046.66 817.793 2058.45C817.793 2070.32 816.302 2080.44 813.319 2088.82C810.336 2097.16 806.021 2103.54 800.375 2107.94C794.729 2112.31 787.893 2114.49 779.867 2114.49ZM779.867 2102.77C787.822 2102.77 794.001 2098.94 798.404 2091.27C802.808 2083.6 805.009 2072.66 805.009 2058.45C805.009 2049.01 803.997 2040.97 801.973 2034.32C799.984 2027.68 797.108 2022.62 793.344 2019.14C789.615 2015.66 785.123 2013.92 779.867 2013.92C771.984 2013.92 765.822 2017.81 761.384 2025.59C756.945 2033.33 754.725 2044.29 754.725 2058.45C754.725 2067.9 755.719 2075.93 757.708 2082.53C759.697 2089.14 762.555 2094.16 766.284 2097.61C770.048 2101.05 774.576 2102.77 779.867 2102.77ZM873.617 2114.49C865.592 2114.49 858.756 2112.31 853.109 2107.94C847.463 2103.54 843.148 2097.16 840.165 2088.82C837.183 2080.44 835.691 2070.32 835.691 2058.45C835.691 2046.66 837.183 2036.6 840.165 2028.25C843.184 2019.87 847.516 2013.48 853.163 2009.08C858.844 2004.64 865.663 2002.42 873.617 2002.42C881.572 2002.42 888.372 2004.64 894.018 2009.08C899.7 2013.48 904.033 2019.87 907.016 2028.25C910.034 2036.6 911.543 2046.66 911.543 2058.45C911.543 2070.32 910.052 2080.44 907.069 2088.82C904.086 2097.16 899.771 2103.54 894.125 2107.94C888.479 2112.31 881.643 2114.49 873.617 2114.49ZM873.617 2102.77C881.572 2102.77 887.751 2098.94 892.154 2091.27C896.558 2083.6 898.759 2072.66 898.759 2058.45C898.759 2049.01 897.747 2040.97 895.723 2034.32C893.734 2027.68 890.858 2022.62 887.094 2019.14C883.365 2015.66 878.873 2013.92 873.617 2013.92C865.734 2013.92 859.572 2017.81 855.134 2025.59C850.695 2033.33 848.475 2044.29 848.475 2058.45C848.475 2067.9 849.469 2075.93 851.458 2082.53C853.447 2089.14 856.305 2094.16 860.034 2097.61C863.798 2101.05 868.326 2102.77 873.617 2102.77ZM937.351 2113.85C934.723 2113.85 932.468 2112.91 930.586 2111.03C928.704 2109.15 927.763 2106.89 927.763 2104.26C927.763 2101.64 928.704 2099.38 930.586 2097.5C932.468 2095.62 934.723 2094.68 937.351 2094.68C939.979 2094.68 942.234 2095.62 944.116 2097.5C945.998 2099.38 946.939 2101.64 946.939 2104.26C946.939 2106 946.495 2107.6 945.608 2109.06C944.755 2110.51 943.601 2111.69 942.145 2112.57C940.725 2113.43 939.127 2113.85 937.351 2113.85ZM978.66 2113.85C976.032 2113.85 973.777 2112.91 971.895 2111.03C970.013 2109.15 969.072 2106.89 969.072 2104.26C969.072 2101.64 970.013 2099.38 971.895 2097.5C973.777 2095.62 976.032 2094.68 978.66 2094.68C981.288 2094.68 983.543 2095.62 985.425 2097.5C987.307 2099.38 988.248 2101.64 988.248 2104.26C988.248 2106 987.804 2107.6 986.916 2109.06C986.064 2110.51 984.91 2111.69 983.454 2112.57C982.033 2113.43 980.435 2113.85 978.66 2113.85ZM1019.97 2113.85C1017.34 2113.85 1015.09 2112.91 1013.2 2111.03C1011.32 2109.15 1010.38 2106.89 1010.38 2104.26C1010.38 2101.64 1011.32 2099.38 1013.2 2097.5C1015.09 2095.62 1017.34 2094.68 1019.97 2094.68C1022.6 2094.68 1024.85 2095.62 1026.73 2097.5C1028.62 2099.38 1029.56 2101.64 1029.56 2104.26C1029.56 2106 1029.11 2107.6 1028.22 2109.06C1027.37 2110.51 1026.22 2111.69 1024.76 2112.57C1023.34 2113.43 1021.74 2113.85 1019.97 2113.85Z" fill="#737370"/>
<path d="M56.3033 2087.91V2197H33.2386V2109.8H32.5994L7.61719 2125.46V2105.01L34.6236 2087.91H56.3033ZM122.075 2198.49C114.546 2198.49 107.835 2197.11 101.94 2194.34C96.0804 2191.57 91.4284 2187.75 87.9838 2182.88C84.5392 2178.02 82.7459 2172.44 82.6039 2166.16H104.976C105.225 2170.38 107 2173.81 110.303 2176.44C113.605 2179.07 117.529 2180.38 122.075 2180.38C125.697 2180.38 128.893 2179.58 131.663 2177.98C134.468 2176.35 136.652 2174.1 138.215 2171.22C139.813 2168.31 140.612 2164.97 140.612 2161.2C140.612 2157.37 139.795 2154 138.161 2151.08C136.563 2148.17 134.344 2145.9 131.503 2144.27C128.662 2142.63 125.413 2141.8 121.755 2141.76C118.559 2141.76 115.452 2142.42 112.433 2143.73C109.45 2145.05 107.124 2146.84 105.455 2149.11L84.9476 2145.44L90.1145 2087.91H156.805V2106.77H109.131L106.308 2134.09H106.947C108.865 2131.39 111.759 2129.16 115.629 2127.38C119.5 2125.6 123.833 2124.72 128.627 2124.72C135.196 2124.72 141.056 2126.26 146.205 2129.35C151.354 2132.44 155.42 2136.68 158.403 2142.08C161.386 2147.44 162.86 2153.62 162.824 2160.62C162.86 2167.97 161.155 2174.5 157.71 2180.22C154.301 2185.9 149.525 2190.38 143.382 2193.64C137.274 2196.88 130.171 2198.49 122.075 2198.49Z" fill="#006CA9"/>
<path d="M1262.26 2122V2110.49C1262.26 2107.23 1262.9 2103.89 1264.17 2100.48C1265.45 2097.07 1267.14 2093.86 1269.23 2090.84C1271.33 2087.82 1273.6 2085.3 1276.05 2083.27L1286.07 2089.19C1284.08 2092.31 1282.44 2095.58 1281.17 2098.99C1279.92 2102.4 1279.3 2106.2 1279.3 2110.39V2122H1262.26ZM1289.16 2122V2110.49C1289.16 2107.23 1289.8 2103.89 1291.07 2100.48C1292.35 2097.07 1294.04 2093.86 1296.13 2090.84C1298.23 2087.82 1300.5 2085.3 1302.95 2083.27L1312.97 2089.19C1310.98 2092.31 1309.34 2095.58 1308.07 2098.99C1306.82 2102.4 1306.2 2106.2 1306.2 2110.39V2122H1289.16ZM1326.76 2197V2087.91H1398.99V2106.93H1349.83V2132.92H1394.2V2151.94H1349.83V2197H1326.76ZM1414.08 2197V2115.18H1436.77V2197H1414.08ZM1425.48 2104.63C1422.11 2104.63 1419.21 2103.52 1416.8 2101.28C1414.42 2099.01 1413.23 2096.29 1413.23 2093.13C1413.23 2090 1414.42 2087.32 1416.8 2085.09C1419.21 2082.81 1422.11 2081.68 1425.48 2081.68C1428.85 2081.68 1431.73 2082.81 1434.11 2085.09C1436.52 2087.32 1437.73 2090 1437.73 2093.13C1437.73 2096.29 1436.52 2099.01 1434.11 2101.28C1431.73 2103.52 1428.85 2104.63 1425.48 2104.63ZM1454.52 2197V2183.47L1494.58 2133.88V2133.29H1455.91V2115.18H1521.91V2129.94L1484.3 2178.3V2178.89H1523.29V2197H1454.52ZM1540.22 2197V2183.47L1580.27 2133.88V2133.29H1541.6V2115.18H1607.6V2129.94L1569.99 2178.3V2178.89H1608.98V2197H1540.22ZM1661.48 2197V2087.91H1705.16C1713.18 2087.91 1719.88 2089.1 1725.24 2091.48C1730.6 2093.86 1734.63 2097.16 1737.33 2101.39C1740.03 2105.58 1741.38 2110.41 1741.38 2115.87C1741.38 2120.14 1740.53 2123.88 1738.82 2127.11C1737.12 2130.31 1734.78 2132.94 1731.79 2135C1728.84 2137.02 1725.47 2138.46 1721.67 2139.31V2140.38C1725.83 2140.55 1729.71 2141.73 1733.34 2143.89C1736.99 2146.06 1739.96 2149.1 1742.23 2153C1744.51 2156.87 1745.64 2161.49 1745.64 2166.85C1745.64 2172.64 1744.2 2177.81 1741.33 2182.35C1738.49 2186.86 1734.28 2190.43 1728.7 2193.06C1723.13 2195.69 1716.26 2197 1708.09 2197H1661.48ZM1684.54 2178.14H1703.35C1709.78 2178.14 1714.46 2176.92 1717.41 2174.47C1720.36 2171.98 1721.83 2168.68 1721.83 2164.56C1721.83 2161.54 1721.1 2158.88 1719.65 2156.57C1718.19 2154.26 1716.11 2152.45 1713.41 2151.14C1710.75 2149.82 1707.57 2149.17 1703.88 2149.17H1684.54V2178.14ZM1684.54 2133.56H1701.64C1704.8 2133.56 1707.61 2133.01 1710.06 2131.91C1712.54 2130.77 1714.5 2129.17 1715.92 2127.11C1717.37 2125.05 1718.1 2122.59 1718.1 2119.71C1718.1 2115.77 1716.7 2112.59 1713.89 2110.17C1711.12 2107.76 1707.18 2106.55 1702.07 2106.55H1684.54V2133.56ZM1812.69 2162.16V2115.18H1835.38V2197H1813.6V2182.14H1812.74C1810.9 2186.93 1807.83 2190.79 1803.53 2193.7C1799.27 2196.61 1794.07 2198.07 1787.92 2198.07C1782.45 2198.07 1777.64 2196.82 1773.49 2194.34C1769.33 2191.85 1766.08 2188.32 1763.74 2183.74C1761.43 2179.16 1760.26 2173.67 1760.22 2167.28V2115.18H1782.92V2163.23C1782.95 2168.06 1784.25 2171.88 1786.8 2174.68C1789.36 2177.49 1792.79 2178.89 1797.08 2178.89C1799.82 2178.89 1802.38 2178.27 1804.75 2177.02C1807.13 2175.75 1809.05 2173.86 1810.51 2171.38C1812 2168.89 1812.73 2165.82 1812.69 2162.16ZM1853.11 2197V2183.47L1893.16 2133.88V2133.29H1854.49V2115.18H1920.49V2129.94L1882.88 2178.3V2178.89H1921.88V2197H1853.11ZM1938.8 2197V2183.47L1978.86 2133.88V2133.29H1940.19V2115.18H2006.18V2129.94L1968.58 2178.3V2178.89H2007.57V2197H1938.8ZM2043.94 2087.91V2099.41C2043.94 2102.68 2043.3 2106.02 2042.02 2109.43C2040.78 2112.8 2039.11 2116 2037.01 2119.02C2034.92 2122 2032.63 2124.54 2030.14 2126.63L2020.13 2120.72C2021.9 2117.92 2023.46 2114.81 2024.81 2111.4C2026.2 2107.99 2026.89 2104.03 2026.89 2099.52V2087.91H2043.94ZM2070.73 2087.91V2099.41C2070.73 2102.68 2070.09 2106.02 2068.81 2109.43C2067.57 2112.8 2065.9 2116 2063.81 2119.02C2061.71 2122 2059.4 2124.54 2056.88 2126.63L2046.87 2120.72C2048.68 2117.92 2050.26 2114.81 2051.61 2111.4C2052.99 2107.99 2053.68 2104.03 2053.68 2099.52V2087.91H2070.73Z" fill="#FA8F00"/>
<path d="M1160.68 2202.97L1148.32 2190.71L1189.76 2149.27L1148.32 2107.88L1160.68 2095.58L1214.37 2149.27L1160.68 2202.97ZM1104.75 2172.28V2154.92H1197.17L1179.7 2172.28H1104.75ZM1104.75 2143.63V2126.26H1179.7L1197.17 2143.63H1104.75Z" fill="#82D1F5"/>
<line x1="717" y1="2145.5" x2="1034" y2="2145.5" stroke="#FA8F00" stroke-width="5"/>
<path d="M283.259 2173.8L248.102 2304.41H236.597L271.753 2173.8H283.259ZM374.225 2289.49C367.975 2289.49 362.347 2288.25 357.34 2285.76C352.333 2283.28 348.32 2279.87 345.301 2275.54C342.283 2271.2 340.632 2266.27 340.347 2260.73H353.132C353.629 2265.66 355.866 2269.75 359.843 2272.98C363.856 2276.17 368.65 2277.77 374.225 2277.77C378.7 2277.77 382.677 2276.73 386.157 2274.63C389.673 2272.53 392.425 2269.66 394.414 2266C396.438 2262.31 397.45 2258.13 397.45 2253.48C397.45 2248.72 396.402 2244.48 394.307 2240.75C392.247 2236.99 389.406 2234.02 385.784 2231.86C382.162 2229.69 378.025 2228.59 373.373 2228.55C370.035 2228.52 366.608 2229.03 363.093 2230.1C359.577 2231.13 356.683 2232.46 354.41 2234.09L342.052 2232.6L348.657 2178.91H405.333V2190.63H359.737L355.901 2222.8H356.541C358.778 2221.03 361.583 2219.55 364.957 2218.38C368.33 2217.21 371.846 2216.62 375.504 2216.62C382.18 2216.62 388.128 2218.22 393.348 2221.42C398.604 2224.58 402.723 2228.91 405.706 2234.41C408.725 2239.92 410.234 2246.2 410.234 2253.27C410.234 2260.23 408.671 2266.44 405.546 2271.91C402.457 2277.35 398.195 2281.64 392.762 2284.8C387.329 2287.93 381.15 2289.49 374.225 2289.49ZM478.908 2223.44V2211.93H544.533V2223.44H478.908ZM478.908 2254.97V2243.47H544.533V2254.97H478.908ZM651.507 2289.49C644.476 2289.49 638.208 2288.28 632.704 2285.87C627.235 2283.45 622.885 2280.1 619.653 2275.8C616.457 2271.47 614.717 2266.44 614.433 2260.73H627.856C628.14 2264.24 629.348 2267.28 631.479 2269.84C633.609 2272.36 636.397 2274.31 639.841 2275.7C643.286 2277.08 647.104 2277.77 651.294 2277.77C655.981 2277.77 660.136 2276.96 663.758 2275.32C667.381 2273.69 670.221 2271.42 672.281 2268.5C674.341 2265.59 675.371 2262.22 675.371 2258.38C675.371 2254.37 674.376 2250.84 672.388 2247.78C670.399 2244.69 667.487 2242.28 663.652 2240.54C659.817 2238.8 655.129 2237.93 649.589 2237.93H640.854V2226.21H649.589C653.922 2226.21 657.721 2225.43 660.988 2223.87C664.291 2222.3 666.866 2220.1 668.712 2217.26C670.594 2214.42 671.535 2211.08 671.535 2207.25C671.535 2203.55 670.719 2200.34 669.085 2197.61C667.452 2194.87 665.143 2192.74 662.16 2191.21C659.213 2189.69 655.733 2188.92 651.72 2188.92C647.956 2188.92 644.405 2189.62 641.067 2191C637.764 2192.35 635.065 2194.32 632.97 2196.91C630.875 2199.47 629.738 2202.56 629.561 2206.18H616.777C616.99 2200.46 618.712 2195.46 621.944 2191.16C625.175 2186.83 629.401 2183.45 634.621 2181.04C639.877 2178.62 645.648 2177.42 651.933 2177.42C658.68 2177.42 664.469 2178.78 669.298 2181.52C674.128 2184.22 677.839 2187.79 680.431 2192.23C683.023 2196.66 684.319 2201.46 684.319 2206.61C684.319 2212.75 682.704 2217.99 679.472 2222.32C676.276 2226.65 671.926 2229.65 666.422 2231.32V2232.18C673.311 2233.31 678.691 2236.24 682.562 2240.97C686.432 2245.65 688.368 2251.46 688.368 2258.38C688.368 2264.31 686.752 2269.64 683.52 2274.36C680.324 2279.05 675.957 2282.74 670.417 2285.44C664.877 2288.14 658.574 2289.49 651.507 2289.49ZM725.748 2273.09L724.896 2278.84C724.292 2282.89 723.369 2287.22 722.126 2291.84C720.918 2296.45 719.658 2300.8 718.344 2304.89C717.03 2308.97 715.947 2312.22 715.094 2314.63H705.506C705.968 2312.36 706.572 2309.36 707.317 2305.63C708.063 2301.9 708.809 2297.73 709.555 2293.11C710.336 2288.53 710.975 2283.85 711.472 2279.05L712.112 2273.09H725.748ZM780.6 2289.49C772.574 2289.49 765.738 2287.31 760.092 2282.94C754.445 2278.54 750.131 2272.16 747.148 2263.82C744.165 2255.44 742.673 2245.32 742.673 2233.45C742.673 2221.66 744.165 2211.6 747.148 2203.25C750.166 2194.87 754.499 2188.48 760.145 2184.08C765.827 2179.64 772.645 2177.42 780.6 2177.42C788.554 2177.42 795.355 2179.64 801.001 2184.08C806.683 2188.48 811.015 2194.87 813.998 2203.25C817.017 2211.6 818.526 2221.66 818.526 2233.45C818.526 2245.32 817.034 2255.44 814.051 2263.82C811.068 2272.16 806.754 2278.54 801.107 2282.94C795.461 2287.31 788.625 2289.49 780.6 2289.49ZM780.6 2277.77C788.554 2277.77 794.733 2273.94 799.137 2266.27C803.54 2258.6 805.742 2247.66 805.742 2233.45C805.742 2224.01 804.73 2215.97 802.705 2209.32C800.717 2202.68 797.84 2197.62 794.076 2194.14C790.347 2190.66 785.855 2188.92 780.6 2188.92C772.716 2188.92 766.555 2192.81 762.116 2200.59C757.677 2208.33 755.458 2219.29 755.458 2233.45C755.458 2242.9 756.452 2250.93 758.441 2257.53C760.429 2264.14 763.288 2269.16 767.017 2272.61C770.781 2276.05 775.308 2277.77 780.6 2277.77ZM874.35 2289.49C866.324 2289.49 859.488 2287.31 853.842 2282.94C848.195 2278.54 843.881 2272.16 840.898 2263.82C837.915 2255.44 836.423 2245.32 836.423 2233.45C836.423 2221.66 837.915 2211.6 840.898 2203.25C843.916 2194.87 848.249 2188.48 853.895 2184.08C859.577 2179.64 866.395 2177.42 874.35 2177.42C882.304 2177.42 889.105 2179.64 894.751 2184.08C900.433 2188.48 904.765 2194.87 907.748 2203.25C910.767 2211.6 912.276 2221.66 912.276 2233.45C912.276 2245.32 910.784 2255.44 907.801 2263.82C904.818 2272.16 900.504 2278.54 894.857 2282.94C889.211 2287.31 882.375 2289.49 874.35 2289.49ZM874.35 2277.77C882.304 2277.77 888.483 2273.94 892.887 2266.27C897.29 2258.6 899.492 2247.66 899.492 2233.45C899.492 2224.01 898.48 2215.97 896.455 2209.32C894.467 2202.68 891.59 2197.62 887.826 2194.14C884.097 2190.66 879.605 2188.92 874.35 2188.92C866.466 2188.92 860.305 2192.81 855.866 2200.59C851.427 2208.33 849.208 2219.29 849.208 2233.45C849.208 2242.9 850.202 2250.93 852.191 2257.53C854.179 2264.14 857.038 2269.16 860.767 2272.61C864.531 2276.05 869.058 2277.77 874.35 2277.77ZM938.084 2288.85C935.456 2288.85 933.201 2287.91 931.319 2286.03C929.437 2284.15 928.496 2281.89 928.496 2279.26C928.496 2276.64 929.437 2274.38 931.319 2272.5C933.201 2270.62 935.456 2269.68 938.084 2269.68C940.711 2269.68 942.966 2270.62 944.849 2272.5C946.731 2274.38 947.672 2276.64 947.672 2279.26C947.672 2281 947.228 2282.6 946.34 2284.06C945.488 2285.51 944.334 2286.69 942.878 2287.57C941.457 2288.43 939.859 2288.85 938.084 2288.85ZM979.392 2288.85C976.764 2288.85 974.509 2287.91 972.627 2286.03C970.745 2284.15 969.804 2281.89 969.804 2279.26C969.804 2276.64 970.745 2274.38 972.627 2272.5C974.509 2270.62 976.764 2269.68 979.392 2269.68C982.02 2269.68 984.275 2270.62 986.157 2272.5C988.039 2274.38 988.98 2276.64 988.98 2279.26C988.98 2281 988.536 2282.6 987.649 2284.06C986.796 2285.51 985.642 2286.69 984.186 2287.57C982.766 2288.43 981.168 2288.85 979.392 2288.85ZM1020.7 2288.85C1018.07 2288.85 1015.82 2287.91 1013.94 2286.03C1012.05 2284.15 1011.11 2281.89 1011.11 2279.26C1011.11 2276.64 1012.05 2274.38 1013.94 2272.5C1015.82 2270.62 1018.07 2269.68 1020.7 2269.68C1023.33 2269.68 1025.58 2270.62 1027.47 2272.5C1029.35 2274.38 1030.29 2276.64 1030.29 2279.26C1030.29 2281 1029.84 2282.6 1028.96 2284.06C1028.1 2285.51 1026.95 2286.69 1025.49 2287.57C1024.07 2288.43 1022.48 2288.85 1020.7 2288.85Z" fill="#737370"/>
<line x1="718" y1="2320.5" x2="1035" y2="2320.5" stroke="#FA8F00" stroke-width="5"/>
<line x1="718" y1="670.5" x2="1035" y2="670.5" stroke="#737370" stroke-width="5"/>
<line x1="718" y1="828.5" x2="1035" y2="828.5" stroke="#737370" stroke-width="5"/>
</svg>
